<?xml version="1.0"?>
<svg width="1020.9999999999999" height="576" xmlns="http://www.w3.org/2000/svg" xmlns:svg="http://www.w3.org/2000/svg" version="1.1">
 <g class="layer">
  <title>Layer 1</title>
  <g fill="none" id="svg_1" stroke-width="2">
   <path d="m166.75,0q-0.07,0.09 -0.16,0.15q-0.09,0.07 -0.21,0.08q-63.54,4.68 -109.53,46.73q-7.39,6.76 -13.89,14.37q-35.83,41.96 -42.08,97.79q-0.05,0.37 -0.31,4.3q-0.14,2.17 -0.57,4.28" id="svg_2" stroke="#575459"/>
   <path d="m187.31,0.3q56.33,3.81 99.99,38.67a1.04,1.03 45.20000076293945 0 0 1.28,0.01q43.96,-34.59 99.52,-38.61q0.37,-0.02 0.74,0.03q0.62,0.09 0.66,-0.4" id="svg_3" stroke="#575459"/>
   <path d="m410.29,0.33c31.05,2.23 60.3,11.65 86.21,28.91q1.18,0.79 6.74,4.85q3.31,2.41 6.86,4.67" id="svg_4" stroke="#575459"/>
   <path d="m510.98,38.73q0.29,0.18 0.54,-0.02q27.17,-21.53 59.82,-31.27q6.72,-2 15.99,-3.93q12.63,-2.63 16.17,-2.64q4.22,-0.03 8.39,-0.59" id="svg_5" stroke="#575459"/>
   <path d="m632.79,0.33q55.66,3.8 98.96,38.18q1.24,0.98 2.49,0.01q43.79,-34.27 99.19,-38.15q0.28,-0.02 0.56,0.03q0.46,0.07 0.51,-0.4" id="svg_6" stroke="#575459"/>
   <path d="m854.78,0.31q36.59,2.26 69.22,18.62q13.04,6.54 24.97,15.46q7.2,5.4 12.36,10.06q7.99,7.21 15.79,15.83q8.35,9.22 16.84,22.92q23.68,38.23 26.77,83.27" id="svg_7" stroke="#575459"/>
   <path d="m1021,184.3q-2.9,49.01 -28.26,87.96q-35.77,54.91 -100.57,74.22q-9.56,2.84 -19.74,4.36q-23.26,3.46 -44.87,1.42q-51.71,-4.89 -94.04,-38.15a0.96,0.95 44.70000076293945 0 0 -1.19,0q-32.05,25.84 -73.55,35.06q-9.45,2.1 -19.57,3q-22.33,1.99 -41.63,-0.75q-48.23,-6.84 -86.76,-37.48a0.64,0.63 44.5 0 0 -0.79,0q-34.86,28.1 -79.93,36.42q-8.48,1.57 -18.85,2.25q-45.09,2.95 -86.18,-15.88q-19.48,-8.93 -36.47,-22.62a1.16,1.16 0 0 0 -1.48,0.03q-2.64,2.32 -5.31,4.27q-29.15,21.36 -63.93,29.8q-9.83,2.39 -18.96,3.44q-31.11,3.57 -58.29,-2.29q-55.71,-12 -94.24,-53.51q-6.46,-6.96 -12.55,-15.43q-30.1,-41.79 -33.55,-94.11" id="svg_8" stroke="#575459"/>
   <path d="m259.3,67.81c-25.91,-19.43 -56.88,-29.15 -89.32,-27.57c-70.36,3.4 -127.33,60.31 -129.71,131.49c-2.26,67.75 44.96,126.8 111.8,139.2c38.14,7.08 76.24,-2.55 107.28,-25.61a0.42,0.41 53.099998474121094 0 0 0.08,-0.59q-25.7,-33.71 -33.5,-73.57c-9.89,-50.48 2.12,-101.86 33.47,-142.61q0.32,-0.42 -0.1,-0.74" id="svg_9" stroke="#8c8c8d"/>
   <path d="m481.84,67.86c-28.04,-21.26 -62.51,-30.73 -97.55,-26.99q-36.89,3.95 -67.69,27.01a0.46,0.45 53.400001525878906 0 0 -0.09,0.64c49.16,64.11 49.25,152.1 0,216.13q-0.27,0.35 0.08,0.62q26.43,19.97 58.74,25.78c37.89,6.81 75.75,-2.81 106.4,-25.65q0.47,-0.35 0.11,-0.82q-26.34,-34.71 -33.86,-75.86c-9.06,-49.64 3.12,-100.11 33.95,-140.16a0.5,0.49 -52.70000076293945 0 0 -0.09,-0.7" id="svg_10" stroke="#8c8c8d"/>
   <path d="m704.31,67.82c-27.62,-21 -61.67,-30.44 -96.28,-27.08q-37.34,3.63 -68.88,27.08a0.49,0.49 0 0 0 -0.1,0.68c49.06,64.03 49.28,151.75 0.12,216a0.62,0.61 -52.70000076293945 0 0 0.11,0.86q25.14,19.05 56.05,25.21c38.71,7.7 77.42,-1.77 108.99,-25.17q0.47,-0.35 0.11,-0.81c-48.97,-63.86 -49.28,-152.01 -0.01,-215.97q0.35,-0.45 -0.11,-0.8" id="svg_11" stroke="#8c8c8d"/>
   <path d="m841.75,313.1c71.45,1.49 132.84,-53.52 138.58,-124.75q3.68,-45.63 -20.32,-84.32c-14.65,-23.6 -36.78,-42.21 -62.09,-53.04q-33.52,-14.34 -70.63,-9.88q-35.22,4.23 -65.45,26.59q-0.58,0.44 -0.13,1.01c20,25.56 32.96,57.91 35.88,90.2q6.29,69.61 -35.9,125.73q-0.33,0.43 0.1,0.75q35.95,26.8 79.96,27.71" id="svg_12" stroke="#8c8c8d"/>
   <path d="m287.58,98.02c-33.38,47.22 -33.07,110.14 0.06,157.17q0.36,0.5 0.71,0q19.71,-28.32 23.96,-62.21c4.22,-33.68 -4.67,-67.33 -23.93,-94.95q-0.4,-0.58 -0.8,-0.01" id="svg_13" stroke="#8c8c8d"/>
   <path d="m510.15,98.05c-17.93,24.92 -26.43,55.87 -24.77,85.92q2.14,38.66 24.69,71.16q0.39,0.58 0.8,0.01q11.69,-16.43 18.01,-35.7c13.54,-41.31 7.03,-85.71 -18,-121.38a0.45,0.45 0 0 0 -0.73,-0.01" id="svg_14" stroke="#8c8c8d"/>
   <path d="m718.45,123.58c-18.4,43.84 -12.84,92.57 14.18,131.61q0.37,0.54 0.74,0.01q16.7,-23.62 22.41,-52.26c7.36,-36.9 -1.05,-74.23 -22.37,-104.98q-0.35,-0.51 -0.7,-0.01q-8.51,11.95 -14.26,25.63" id="svg_15" stroke="#8c8c8d"/>
   <path d="m176.38,564.56q-0.72,-0.4 -1.27,-1.43q-27.13,-51.06 -53.71,-102.29a1.63,1.62 76 0 0 -1.46,-0.88l-22.34,0.04q-1.66,0 -2.44,1.47l-55.12,104.74" id="svg_16" stroke="#e18797"/>
   <path d="m176.57,564.66q0.28,2.24 -0.8,2.24q-12.25,-0.01 -24.53,0.06a1.88,1.87 -13.399999618530273 0 1 -1.67,-1.02l-10.45,-20.34a1.54,1.54 0 0 0 -1.37,-0.84l-58.49,-0.01a2.44,2.43 -76.4000015258789 0 0 -2.17,1.33l-10.02,19.73a2,1.98 13.800000190734863 0 1 -1.81,1.09q-12.12,-0.12 -24.46,0.07q-0.34,0 -0.56,-0.13q-0.48,-0.29 -0.2,-0.63" id="svg_17" stroke="#e18797"/>
   <path d="m353.49,568.8q12.93,-2.08 22.58,-9.17a0.76,0.76 0 0 1 1.2,0.47l1.08,5.92a1.19,1.19 0 0 0 1.17,0.97l18.03,-0.02a1.27,1.26 90 0 0 1.26,-1.27l0.01,-104.59a1.09,1.09 0 0 0 -1.09,-1.1l-20.87,0a1.38,1.38 0 0 0 -1.38,1.38l0.19,33.83a0.51,0.51 0 0 1 -0.75,0.45q-10.76,-5.8 -22.8,-6.65q-12.21,-0.86 -22.49,1.89c-13.92,3.72 -24.35,14 -26.79,28.3c-1.48,8.64 -1.12,19.18 2.17,27.19q7.22,17.55 27.25,21.7q3.71,0.77 9.24,1.17" id="svg_18" stroke="#e18797"/>
   <path d="m212.27,491.16l-21.65,0.02a1.04,1.04 0 0 0 -1.04,1.04q0.01,21.83 0.11,45.67c0.04,10.26 3.89,20.55 12.83,25.94q7.8,4.7 16.85,4.94q3.61,0.09 7,0.22q3.99,0.15 7.36,-0.32q13,-1.78 23.38,-8.54a0.59,0.58 -22.399999618530273 0 1 0.9,0.37l1.24,5.95a0.66,0.65 -6.300000190734863 0 0 0.66,0.52q9.18,-0.28 18.33,-0.03q1.16,0.03 1.72,-0.7" id="svg_19" stroke="#e18797"/>
   <path d="m279.98,502.05l-0.15,-9.83a1.02,1.02 0 0 0 -1.02,-1.01l-21.04,0.01a1.13,1.12 -0.30000001192092896 0 0 -1.13,1.13q0.06,25.61 -0.01,51.11q-0.01,1.58 -1.44,2.36q-13.86,7.56 -28.89,5.18c-7.34,-1.16 -11.93,-5.55 -13.02,-12.65q-0.52,-3.4 -0.52,-5.85q-0.06,-20.75 -0.05,-41.48" id="svg_20" stroke="#e18797"/>
   <path d="m451.03,461.2a1.19,1.19 0 0 0 -1.19,-1.19l-20.86,0a1.19,1.19 0 0 0 -1.19,1.19l0,17.82a1.19,1.19 0 0 0 1.19,1.19l20.86,0a1.19,1.19 0 0 0 1.19,-1.19l0,-17.82" id="svg_21" stroke="#e18797"/>
   <path d="m87.09,525.78a0.32,0.32 0 0 0 0.29,0.46l41.88,0a0.32,0.32 0 0 0 0.29,-0.46l-20.94,-41.82a0.32,0.32 0 0 0 -0.58,0l-20.94,41.82" id="svg_22" stroke="#e18797"/>
   <path d="m327.65,518.94q-3.64,8.94 -0.51,18.75c6.16,19.33 34.91,14.58 47.73,7.81a1.18,1.17 76.19999694824219 0 0 0.62,-1.04l0.01,-30.92a0.76,0.76 0 0 0 -0.42,-0.68q-11.78,-6.03 -25.54,-5.86c-9.23,0.11 -18.25,2.99 -21.89,11.94" id="svg_23" stroke="#e18797"/>
   <path d="m450.89,492.2a1.02,1.02 0 0 0 -1.03,-1.02l-21.12,0.04a1.02,1.02 0 0 0 -1.01,1.02l0.12,73.68a1.02,1.02 0 0 0 1.03,1.02l21.12,-0.04a1.02,1.02 0 0 0 1.01,-1.02l-0.12,-73.68" id="svg_24" stroke="#e18797"/>
  </g>
  <path d="m165.88,0l0.87,0q-0.07,0.09 -0.16,0.15q-0.09,0.07 -0.21,0.08q-63.54,4.68 -109.53,46.73q-7.39,6.76 -13.89,14.37q-35.83,41.96 -42.08,97.79q-0.05,0.37 -0.31,4.3q-0.14,2.17 -0.57,4.28l0,-7.19q0.73,-5 1.39,-10q0.8,-6.01 1.65,-9.96c5.9,-27.22 17.94,-53.65 35.75,-75.18c3.11,-3.76 6.2,-7.66 9.54,-11.11q41.8,-43.11 101.01,-52.85q4.1,-0.67 8.26,-0.94q4.14,-0.26 8.28,-0.47z" fill="#969097" fill-opacity="1" id="svg_25"/>
  <path d="m166.75,0l19.37,0l1.19,0.3q56.33,3.81 99.99,38.67a1.04,1.03 45.20000076293945 0 0 1.28,0.01q43.96,-34.59 99.52,-38.61q0.37,-0.02 0.74,0.03q0.62,0.09 0.66,-0.4l18.78,0l2.01,0.33c31.05,2.23 60.3,11.65 86.21,28.91q1.18,0.79 6.74,4.85q3.31,2.41 6.86,4.67q-0.22,-0.28 0.88,-0.03q0.29,0.18 0.54,-0.02q27.17,-21.53 59.82,-31.27q6.72,-2 15.99,-3.93q12.63,-2.63 16.17,-2.64q4.22,-0.03 8.39,-0.59q0.06,-0.14 0.12,-0.28l19.11,0l1.67,0.33q55.66,3.8 98.96,38.18q1.24,0.98 2.49,0.01q43.79,-34.27 99.19,-38.15q0.28,-0.02 0.56,0.03q0.46,0.07 0.51,-0.4l19.62,0q0.01,0.14 0.66,0.31q36.59,2.26 69.22,18.62q13.04,6.54 24.97,15.46q7.2,5.4 12.36,10.06q7.99,7.21 15.79,15.83q8.35,9.22 16.84,22.92q23.68,38.23 26.77,83.27l0.27,0.31l0,17.52q-2.9,49.01 -28.26,87.96q-35.77,54.91 -100.57,74.22q-9.56,2.84 -19.74,4.36q-23.26,3.46 -44.87,1.42q-51.71,-4.89 -94.04,-38.15a0.96,0.95 44.70000076293945 0 0 -1.19,0q-32.05,25.84 -73.55,35.06q-9.45,2.1 -19.57,3q-22.33,1.99 -41.63,-0.75q-48.23,-6.84 -86.76,-37.48a0.64,0.63 44.5 0 0 -0.79,0q-34.86,28.1 -79.93,36.42q-8.48,1.57 -18.85,2.25q-45.09,2.95 -86.18,-15.88q-19.48,-8.93 -36.47,-22.62a1.16,1.16 0 0 0 -1.48,0.03q-2.64,2.32 -5.31,4.27q-29.15,21.36 -63.93,29.8q-9.83,2.39 -18.96,3.44q-31.11,3.57 -58.29,-2.29q-55.71,-12 -94.24,-53.51q-6.46,-6.96 -12.55,-15.43q-30.1,-41.79 -33.55,-94.11q-0.09,-0.7 -0.29,-0.93l0,-17.68q0.43,-2.11 0.57,-4.28q0.26,-3.93 0.31,-4.3q6.25,-55.83 42.08,-97.79q6.5,-7.61 13.89,-14.37q45.99,-42.05 109.53,-46.73q0.12,-0.01 0.21,-0.08q0.09,-0.06 0.16,-0.15zm92.55,67.81c-25.91,-19.43 -56.88,-29.15 -89.32,-27.57c-70.36,3.4 -127.33,60.31 -129.71,131.49c-2.26,67.75 44.96,126.8 111.8,139.2c38.14,7.08 76.24,-2.55 107.28,-25.61a0.42,0.41 53.099998474121094 0 0 0.08,-0.59q-25.7,-33.71 -33.5,-73.57c-9.89,-50.48 2.12,-101.86 33.47,-142.61q0.32,-0.42 -0.1,-0.74zm222.54,0.05c-28.04,-21.26 -62.51,-30.73 -97.55,-26.99q-36.89,3.95 -67.69,27.01a0.46,0.45 53.400001525878906 0 0 -0.09,0.64c49.16,64.11 49.25,152.1 0,216.13q-0.27,0.35 0.08,0.62q26.43,19.97 58.74,25.78c37.89,6.81 75.75,-2.81 106.4,-25.65q0.47,-0.35 0.11,-0.82q-26.34,-34.71 -33.86,-75.86c-9.06,-49.64 3.12,-100.11 33.95,-140.16a0.5,0.49 -52.70000076293945 0 0 -0.09,-0.7zm222.47,-0.04c-27.62,-21 -61.67,-30.44 -96.28,-27.08q-37.34,3.63 -68.88,27.08a0.49,0.49 0 0 0 -0.1,0.68c49.06,64.03 49.28,151.75 0.12,216a0.62,0.61 -52.70000076293945 0 0 0.11,0.86q25.14,19.05 56.05,25.21c38.71,7.7 77.42,-1.77 108.99,-25.17q0.47,-0.35 0.11,-0.81c-48.97,-63.86 -49.28,-152.01 -0.01,-215.97q0.35,-0.45 -0.11,-0.8zm137.44,245.28c71.45,1.49 132.84,-53.52 138.58,-124.75q3.68,-45.63 -20.32,-84.32c-14.65,-23.6 -36.78,-42.21 -62.09,-53.04q-33.52,-14.34 -70.63,-9.88q-35.22,4.23 -65.45,26.59q-0.58,0.44 -0.13,1.01c20,25.56 32.96,57.91 35.88,90.2q6.29,69.61 -35.9,125.73q-0.33,0.43 0.1,0.75q35.95,26.8 79.96,27.71zm-554.17,-215.08c-33.38,47.22 -33.07,110.14 0.06,157.17q0.36,0.5 0.71,0q19.71,-28.32 23.96,-62.21c4.22,-33.68 -4.67,-67.33 -23.93,-94.95q-0.4,-0.58 -0.8,-0.01zm222.57,0.03c-17.93,24.92 -26.43,55.87 -24.77,85.92q2.14,38.66 24.69,71.16q0.39,0.58 0.8,0.01q11.69,-16.43 18.01,-35.7c13.54,-41.31 7.03,-85.71 -18,-121.38a0.45,0.45 0 0 0 -0.73,-0.01zm208.3,25.53c-18.4,43.84 -12.84,92.57 14.18,131.61q0.37,0.54 0.74,0.01q16.7,-23.62 22.41,-52.26c7.36,-36.9 -1.05,-74.23 -22.37,-104.98q-0.35,-0.51 -0.7,-0.01q-8.51,11.95 -14.26,25.63z" fill="#19181b" id="svg_26"/>
  <path d="m388.63,0l0.87,0q-0.04,0.49 -0.66,0.4q-0.37,-0.05 -0.74,-0.03q-55.56,4.02 -99.52,38.61a1.04,1.03 45.20000076293945 0 1 -1.28,-0.01q-43.66,-34.86 -99.99,-38.67q12.69,-0.26 25.2,2.69q9.37,2.22 16.75,4.42q31.94,9.52 57,30.14q0.45,0.37 1.04,0.38q1.58,0.01 2.87,-1.01q31.57,-24.91 72.08,-33.67q13.8,-2.98 26.38,-3.25z" fill="#969097" fill-opacity="1" id="svg_27"/>
  <path d="m833.88,0l0.62,0q-0.05,0.47 -0.51,0.4q-0.28,-0.05 -0.56,-0.03q-55.4,3.88 -99.19,38.15q-1.25,0.97 -2.49,-0.01q-43.3,-34.38 -98.96,-38.18q6.11,-0.17 12.19,0.61c17.81,2.27 34,7.08 49.94,14.16q18.86,8.39 34.37,20.73q1.61,1.28 3.83,2.47q0.44,0.24 0.82,-0.1q2.06,-1.85 4.01,-3.33q35.95,-27.27 81.86,-33.81q3.29,-0.47 6.98,-0.67q3.54,-0.19 7.09,-0.39z" fill="#969097" fill-opacity="1" id="svg_28"/>
  <path d="m410.29,0.33q6.62,-0.23 13.21,0.67q17.14,2.35 33.47,8.07q23.11,8.09 43.36,21.86q5.09,3.46 9.77,7.83q-3.55,-2.26 -6.86,-4.67q-5.56,-4.06 -6.74,-4.85c-25.91,-17.26 -55.16,-26.68 -86.21,-28.91z" fill="#969097" fill-opacity="1" id="svg_29"/>
  <path d="m611.89,0.28q-4.17,0.56 -8.39,0.59q-3.54,0.01 -16.17,2.64q-9.27,1.93 -15.99,3.93q-32.65,9.74 -59.82,31.27q-0.25,0.2 -0.54,0.02q0.1,-0.51 0.6,-0.9q38.65,-30.52 87.65,-37.09q4.87,-0.65 12.66,-0.46z" fill="#969097" fill-opacity="1" id="svg_30"/>
  <path d="m854.78,0.31q7.72,-0.2 12.72,0.49q19.25,2.65 35.61,8.45q9.97,3.54 21.45,9.33q9.3,4.7 17.2,9.92q35.99,23.79 56.99,61.21q2.12,3.77 4.12,7.58c5.75,10.96 9.75,22.72 13.38,36.22q4.6,17.06 4.48,32.96q-3.09,-45.04 -26.77,-83.27q-8.49,-13.7 -16.84,-22.92q-7.8,-8.62 -15.79,-15.83q-5.16,-4.66 -12.36,-10.06q-11.93,-8.92 -24.97,-15.46q-32.63,-16.36 -69.22,-18.62z" fill="#969097" fill-opacity="1" id="svg_31"/>
  <path d="m1021,184.3l0,7.7q-3.21,35.29 -18.68,65.08q-30.47,58.69 -92.77,84.38c-4.83,1.99 -9.85,3.46 -14.73,5.04q-5.67,1.84 -11.31,2.99q-17.8,3.65 -32.37,4.25q-26.58,1.08 -53.02,-6.02q-14.14,-3.8 -26.78,-9.56q-18.98,-8.63 -34.76,-20.87q-1.53,-1.18 -3.27,-2.11q-0.51,-0.27 -0.96,0.08q-10.8,8.26 -20.69,14.15q-10.2,6.07 -24.51,11.91q-8.09,3.31 -19.91,6.6q-8.63,2.4 -18.57,3.83q-12.51,1.8 -19.39,2.02q-65.7,2.17 -117.99,-38.51a1.37,1.37 0 0 0 -1.7,0q-31.33,24.78 -69.15,33.78q-6.71,1.59 -16.68,3.03q-21.09,3.04 -41.24,0.99q-14.97,-1.52 -26.63,-4.54q-32.86,-8.51 -60.43,-28.2c-2.18,-1.56 -4.06,-3.47 -6.29,-4.82a2.44,2.43 41 0 0 -2.8,0.19q-20.33,16.4 -45.69,26.15q-10.2,3.91 -17.9,5.88q-25.12,6.39 -46.05,6.2q-63.25,-0.55 -111.95,-40q-36.57,-29.62 -54.14,-75.37q-1.87,-4.88 -3.55,-10.4q-2.26,-7.48 -3.05,-10.81q-2.74,-11.52 -3.81,-25.34q-0.09,-1.2 0.06,-5.69q3.45,52.32 33.55,94.11q6.09,8.47 12.55,15.43q38.53,41.51 94.24,53.51q27.18,5.86 58.29,2.29q9.13,-1.05 18.96,-3.44q34.78,-8.44 63.93,-29.8q2.67,-1.95 5.31,-4.27a1.16,1.16 0 0 1 1.48,-0.03q16.99,13.69 36.47,22.62q41.09,18.83 86.18,15.88q10.37,-0.68 18.85,-2.25q45.07,-8.32 79.93,-36.42a0.64,0.63 44.5 0 1 0.79,0q38.53,30.64 86.76,37.48q19.3,2.74 41.63,0.75q10.12,-0.9 19.57,-3q41.5,-9.22 73.55,-35.06a0.96,0.95 44.70000076293945 0 1 1.19,0q42.33,33.26 94.04,38.15q21.61,2.04 44.87,-1.42q10.18,-1.52 19.74,-4.36q64.8,-19.31 100.57,-74.22q25.36,-38.95 28.26,-87.96z" fill="#969097" fill-opacity="1" id="svg_39"/>
  <path d="m176.38,564.56q-0.72,-0.4 -1.27,-1.43q-27.13,-51.06 -53.71,-102.29a1.63,1.62 76 0 0 -1.46,-0.88l-22.34,0.04q-1.66,0 -2.44,1.47l-55.12,104.74q-0.09,-0.99 0.32,-1.87q2.14,-4.59 5.35,-10.55q8.17,-15.2 16.14,-30.24q4.28,-8.08 7.9,-15.17q3.68,-7.19 7.38,-13.97c2.57,-4.71 5.08,-9.7 7.7,-14.79q3,-5.83 5.94,-11.18c1.77,-3.2 2.33,-6.73 5.35,-9.12a1.3,1.28 -64.5 0 1 0.77,-0.28q10.71,-0.27 22.05,0.02q1.61,0.04 2.96,1.02q0.35,0.25 0.38,0.67q0.02,0.22 -0.05,0.44a0.53,0.52 23.299999237060547 0 0 0.25,0.62c1.04,0.57 1.19,1.83 1.71,2.83c1.92,3.7 4.09,7.33 5.88,11.15q1.23,2.62 3.44,5.43q0.43,0.54 0.4,-0.15q-0.03,-0.53 -0.41,-0.91q-0.47,-0.47 0.18,-0.31q0.68,0.17 0.93,0.76a1.22,1.22 0 0 1 -0.13,1.19q-0.62,0.88 -0.15,1.81q3.52,6.82 7.08,14.02q2.09,4.24 4.52,8.39q2.38,4.09 4.57,8.29q5.04,9.65 10.06,19.71q3.63,7.28 7.4,14.15q3.83,6.99 7.75,14.08q0.56,1.01 0.67,2.31z" fill="#ffffff" id="svg_40"/>
  <path d="m353.49,568.8q12.93,-2.08 22.58,-9.17a0.76,0.76 0 0 1 1.2,0.47l1.08,5.92a1.19,1.19 0 0 0 1.17,0.97l18.03,-0.02a1.27,1.26 90 0 0 1.26,-1.27l0.01,-104.59a1.09,1.09 0 0 0 -1.09,-1.1l-20.87,0a1.38,1.38 0 0 0 -1.38,1.38l0.19,33.83a0.51,0.51 0 0 1 -0.75,0.45q-10.76,-5.8 -22.8,-6.65q-12.21,-0.86 -22.49,1.89c-13.92,3.72 -24.35,14 -26.79,28.3c-1.48,8.64 -1.12,19.18 2.17,27.19q7.22,17.55 27.25,21.7q3.71,0.77 9.24,1.17q-1.47,0.49 -2.98,0.5q-1.22,0.02 -2.5,-0.38q-1.17,-0.37 -2.46,-0.52q-18.85,-2.16 -28.09,-19.6q-0.11,-0.21 -0.33,-0.31q-0.44,-0.2 -0.54,-0.68q-0.51,-2.53 -1.45,-4.97q-0.89,-2.29 -1.24,-4.67q-0.35,-2.4 -0.73,-4.68q-0.4,-2.36 -0.37,-4.64q0.18,-11.54 5.57,-22.51c5.73,-11.67 21.27,-18.15 33.39,-18.68c5.93,-0.25 12.34,-0.55 18.2,0.68q6.01,1.26 11.6,3.34a0.8,0.76 84.9000015258789 0 1 0.4,0.35q0.11,0.18 0.28,0.32q0.22,0.16 0.49,0.16q0.76,-0.01 1.18,0.61a1.02,1.02 0 0 0 0.79,0.43l1.56,0.06q0.64,0.03 0.65,-0.61q0.34,-15.26 -0.26,-28.38q-0.06,-1.28 -0.34,-2.39c-0.56,-2.12 1.49,-3.67 3.43,-3.68q9.89,-0.05 20.08,0.03a2.18,2.17 -89.69999694824219 0 1 2.15,2.18l0.01,104.52a2.24,2.24 0 0 1 -2.24,2.24l-18.26,0a1.4,1.39 65.0999984741211 0 1 -0.9,-0.33q-1.8,-1.47 -1.56,-3.89q0.06,-0.66 -0.49,-0.91q-0.59,-0.26 -0.26,-0.82l0.27,-0.44q0.34,-0.57 -0.3,-0.71q-0.27,-0.06 -0.58,0.07q-0.48,0.2 -0.84,0.6q-1.6,1.76 -3.94,2.24q-0.71,0.14 -1.11,0.74q-0.32,0.48 -0.9,0.45q-0.61,-0.03 -1.01,0.42q-0.7,0.77 -1.76,0.59q-0.67,-0.11 -1.11,0.4q-0.65,0.74 -1.61,0.58q-0.7,-0.11 -1.25,0.33q-1.02,0.79 -2.47,0.79q-0.58,0.01 -1.11,0.27q-2.17,1.09 -5.07,0.43z" fill="#ffffff" id="svg_41"/>
  <path d="m451.95,479.01a2.02,2.02 0 0 1 -2.03,2.02l-20.92,-0.08a2.02,2.02 0 0 1 -2.01,-2.02l0.06,-17.92a2.02,2.02 0 0 1 2.03,-2.02l20.92,0.08a2.02,2.02 0 0 1 2.01,2.02l-0.06,17.92zm-0.92,-17.81a1.19,1.19 0 0 0 -1.19,-1.19l-20.86,0a1.19,1.19 0 0 0 -1.19,1.19l0,17.82a1.19,1.19 0 0 0 1.19,1.19l20.86,0a1.19,1.19 0 0 0 1.19,-1.19l0,-17.82z" fill="#ffffff" id="svg_42"/>
  <path d="m176.38,564.56q0.1,0.05 0.19,0.1q0.28,2.24 -0.8,2.24q-12.25,-0.01 -24.53,0.06a1.88,1.87 -13.399999618530273 0 1 -1.67,-1.02l-10.45,-20.34a1.54,1.54 0 0 0 -1.37,-0.84l-58.49,-0.01a2.44,2.43 -76.4000015258789 0 0 -2.17,1.33l-10.02,19.73a2,1.98 13.800000190734863 0 1 -1.81,1.09q-12.12,-0.12 -24.46,0.07q-0.34,0 -0.56,-0.13q-0.48,-0.29 -0.2,-0.63l55.12,-104.74q0.78,-1.47 2.44,-1.47l22.34,-0.04a1.63,1.62 76 0 1 1.46,0.88q26.58,51.23 53.71,102.29q0.55,1.03 1.27,1.43zm-89.29,-38.78a0.32,0.32 0 0 0 0.29,0.46l41.88,0a0.32,0.32 0 0 0 0.29,-0.46l-20.94,-41.82a0.32,0.32 0 0 0 -0.58,0l-20.94,41.82z" fill="#c20f2f" id="svg_43" transform="matrix(1 0 0 1 0 0)"/>
  <path d="m353.49,568.8q-5.52,1.05 -11.99,0.47q-5.53,-0.4 -9.24,-1.17q-20.03,-4.15 -27.25,-21.7c-3.29,-8.01 -3.65,-18.55 -2.17,-27.19c2.44,-14.3 12.87,-24.58 26.79,-28.3q10.28,-2.75 22.49,-1.89q12.04,0.85 22.8,6.65a0.51,0.51 0 0 0 0.75,-0.45l-0.19,-33.83a1.38,1.38 0 0 1 1.38,-1.38l20.87,0a1.09,1.09 0 0 1 1.09,1.1l-0.01,104.59a1.27,1.26 90 0 1 -1.26,1.27l-18.03,0.02a1.19,1.19 0 0 1 -1.17,-0.97l-1.08,-5.92a0.76,0.76 0 0 0 -1.2,-0.47q-9.65,7.09 -22.58,9.17zm-25.84,-49.86q-3.64,8.94 -0.51,18.75c6.16,19.33 34.91,14.58 47.73,7.81a1.18,1.17 76.19999694824219 0 0 0.62,-1.04l0.01,-30.92a0.76,0.76 0 0 0 -0.42,-0.68q-11.78,-6.03 -25.54,-5.86c-9.23,0.11 -18.25,2.99 -21.89,11.94z" fill="#c20f2f" id="svg_44"/>
  <rect fill="#c20f2f" height="20.2" id="svg_45" rx="1.19" width="23.24" x="427.79" y="460.01"/>
  <path d="m212.27,491.16l-21.65,0.02a1.04,1.04 0 0 0 -1.04,1.04q0.01,21.83 0.11,45.67c0.04,10.26 3.89,20.55 12.83,25.94q7.8,4.7 16.85,4.94q3.61,0.09 7,0.22q3.99,0.15 7.36,-0.32q13,-1.78 23.38,-8.54a0.59,0.58 -22.399999618530273 0 1 0.9,0.37l1.24,5.95a0.66,0.65 -6.300000190734863 0 0 0.66,0.52q9.18,-0.28 18.33,-0.03q1.16,0.03 1.72,-0.7q0.16,0.7 -0.03,1.26a0.71,0.7 9.100000381469727 0 1 -0.67,0.48l-19.25,-0.02a1.97,1.97 0 0 1 -1.97,-1.95l-0.04,-3.42q-0.01,-1.39 -1.31,-0.88q-2.72,1.08 -4.84,2.45c-3,1.94 -6.55,2.66 -9.87,3.77c-2.98,1 -5.98,1.01 -9.09,1.3q-1.95,0.18 -3.81,0.18q-12.56,-0.01 -16.43,-0.7q-3.77,-0.67 -9.09,-3.44c-1.79,-0.93 -2.92,-2.38 -4.77,-3.17q-0.47,-0.2 -0.69,-0.67c-0.69,-1.53 -2.27,-1.56 -2.92,-3.21q-0.52,-1.32 -1.54,-2.52q-0.74,-0.87 -1.14,-1.95q-0.75,-2.03 -1.69,-4.11q-0.79,-1.72 -1,-3.49c-0.21,-1.79 -0.8,-3.43 -0.8,-5.26q0,-23.17 0.01,-44.23q0,-0.44 -0.29,-0.77q-0.1,-0.11 -0.25,-0.16q-0.21,-0.08 -0.11,-0.28q1.03,-2.04 0.71,-4.09a1.14,1.14 0 0 1 1.13,-1.32l19.02,-0.02q0.58,0 0.95,0.46q0.39,0.5 0.82,0.02q0.42,-0.47 0.87,-0.04q0.28,0.27 0.4,0.7z" fill="#ffffff" id="svg_47"/>
  <path d="m279.98,502.05l-0.15,-9.83a1.02,1.02 0 0 0 -1.02,-1.01l-21.04,0.01a1.13,1.12 -0.30000001192092896 0 0 -1.13,1.13q0.06,25.61 -0.01,51.11q-0.01,1.58 -1.44,2.36q-13.86,7.56 -28.89,5.18c-7.34,-1.16 -11.93,-5.55 -13.02,-12.65q-0.52,-3.4 -0.52,-5.85q-0.06,-20.75 -0.05,-41.48q0.36,-0.14 0.83,0.02q0.44,0.16 0.45,0.63q0.03,22.61 -0.04,46.15c-0.01,3.14 2.22,6.28 3.98,8.58c1.03,1.35 3.18,2.42 5.08,2.68q0.69,0.1 1.16,0.6q0.34,0.35 0.83,0.33c2.25,-0.08 4.33,0.96 6.65,0.91q12.05,-0.25 22.12,-5.33c2.32,-1.17 2.28,-2.9 2.29,-5.21q0.06,-24.29 -0.05,-48.45a1.97,1.97 0 0 1 2.89,-1.75c1.43,0.75 2.97,-0.18 4.51,-0.18q7.82,0.02 15.72,0q0.54,0 0.79,0.48q1.14,2.13 0.39,5.02q-0.56,2.15 -0.33,6.55z" fill="#ffffff" id="svg_48"/>
  <path d="m446.3,490.82q1.92,-1.65 5.18,0.29q0.49,0.29 0.49,0.86l0,73.54a2.48,2.47 0 0 1 -2.48,2.47l-20.1,0a2.35,2.34 0 0 1 -2.35,-2.34l-0.04,-73.32a2.2,2.19 -0.30000001192092896 0 1 2.18,-2.19l16.13,-0.12q0.42,0 0.73,0.27q0.24,0.21 0.19,0.5a0.04,0.04 0 0 0 0.07,0.04zm4.59,1.38a1.02,1.02 0 0 0 -1.03,-1.02l-21.12,0.04a1.02,1.02 0 0 0 -1.01,1.02l0.12,73.68a1.02,1.02 0 0 0 1.03,1.02l21.12,-0.04a1.02,1.02 0 0 0 1.01,-1.02l-0.12,-73.68z" fill="#ffffff" id="svg_49"/>
  <path d="m212.27,491.16q0.22,-0.07 0.44,-0.14q-0.01,20.73 0.05,41.48q0,2.45 0.52,5.85c1.09,7.1 5.68,11.49 13.02,12.65q15.03,2.38 28.89,-5.18q1.43,-0.78 1.44,-2.36q0.07,-25.5 0.01,-51.11a1.13,1.12 -0.30000001192092896 0 1 1.13,-1.13l21.04,-0.01a1.02,1.02 0 0 1 1.02,1.01l0.15,9.83l0.05,60.29q0,0.46 0.36,0.74q0.15,0.11 0.25,0.26q0.11,0.17 -0.02,0.33q-0.86,1 -0.66,2.57q-0.56,0.73 -1.72,0.7q-9.15,-0.25 -18.33,0.03a0.66,0.65 -6.300000190734863 0 1 -0.66,-0.52l-1.24,-5.95a0.59,0.58 -22.399999618530273 0 0 -0.9,-0.37q-10.38,6.76 -23.38,8.54q-3.37,0.47 -7.36,0.32q-3.39,-0.13 -7,-0.22q-9.05,-0.24 -16.85,-4.94c-8.94,-5.39 -12.79,-15.68 -12.83,-25.94q-0.1,-23.84 -0.11,-45.67a1.04,1.04 0 0 1 1.04,-1.04l21.65,-0.02z" fill="#c20f2f" id="svg_50"/>
  <rect fill="#c20f2f" height="75.72" id="svg_51" rx="1.02" transform="translate(439.37,529.06) rotate(-0.1)" width="23.16" x="-11.58" y="-37.86"/>
  <path d="m176.57,564.66q1.41,-1.08 0.41,2.56a1.05,1.04 7.599999904632568 0 1 -1.01,0.76l-24.03,-0.01a3.79,3.79 0 0 1 -3.39,-2.09q-1.85,-3.72 -4,-7.4c-0.57,-0.99 -0.48,-1.92 -1.04,-2.89q-1.99,-3.44 -3.64,-7.03q-0.22,-0.48 -0.58,-0.85q-0.4,-0.41 -0.26,-0.95q0.2,-0.78 -0.6,-0.77c-0.95,0.01 -1.66,0.02 -2.57,-0.32q-0.77,-0.29 -1.61,0.08q-0.48,0.21 -1.01,0.22q-23.68,0.05 -48.78,-0.02q-1.73,0 -3.53,-0.41q-2.36,-0.54 -3.62,1.91q-4.82,9.38 -9.39,18.61a3.46,3.45 13.100000381469727 0 1 -3.1,1.92l-25.07,-0.01q-0.59,0 -0.52,-0.58q0.06,-0.55 0.81,-1.18q-0.28,0.34 0.2,0.63q0.22,0.13 0.56,0.13q12.34,-0.19 24.46,-0.07a2,1.98 13.800000190734863 0 0 1.81,-1.09l10.02,-19.73a2.44,2.43 -76.4000015258789 0 1 2.17,-1.33l58.49,0.01a1.54,1.54 0 0 1 1.37,0.84l10.45,20.34a1.88,1.87 -13.399999618530273 0 0 1.67,1.02q12.28,-0.07 24.53,-0.06q1.08,0 0.8,-2.24z" fill="#ffffff" id="svg_53"/>
  <path d="m192.14,559.32a0.68,0.67 -37.79999923706055 0 1 0.12,-0.93q0.79,-0.64 1.83,0.59a0.58,0.58 0 0 1 -0.29,0.93q-1.01,0.28 -1.66,-0.59z" fill="#ffffff" id="svg_54"/>
  <path d="m198.49,563.86q0.6,-0.14 1.06,0.56q0.45,0.68 -0.36,0.7q-0.38,0 -0.75,-0.12a0.59,0.59 0 0 1 0.05,-1.14z" fill="#ffffff" id="svg_55"/>
  <path d="m453.23,568.57a0.31,0.31 0 0 1 0.57,-0.08q0.3,0.54 0.02,1.12q-0.28,0.58 -0.65,0.05q-0.16,-0.23 0.06,-1.09z" fill="#ffffff" id="svg_56"/>
 </g>
</svg>