<?xml version="1.0" encoding="UTF-8" standalone="no"?>
<svg xmlns="http://www.w3.org/2000/svg" xml:space="preserve" width="850.457" height="144.449" viewBox="0 0 225.017 38.219">
  <path fill="#0080c5" d="M60.452 0v10.293h20.83c4.652.033 5.479 1.514 5.479 2.953v.695H71.7c-3.385 0-4.517.209-6.155.624-1.639.416-2.625.84-3.714 1.713-1.16.93-1.977 2.03-2.535 3.528-.442 1.188-.869 3.243-.955 4.885l.015-12.382c0-2.01-.275-3.832-.858-5.398-.582-1.566-1.472-2.876-2.699-3.86-1.282-1.027-2.535-1.774-4.464-2.264-1.93-.49-4.535-.722-8.52-.722H0v38.15h13.195V10.96h9.688v27.253H35.95V10.961h5.023c3.997 0 4.386 1.816 4.498 5.313v21.94h12.854l.013-10.872c.087 1.66.62 3.79 1.074 5.008.557 1.498 1.375 2.598 2.535 3.528 1.089.873 2.075 1.297 3.713 1.713 1.638.416 2.77.623 6.156.623h33.778L141.85 9.638v28.576h23.126c5.285 0 11.661.288 15.633-3.684 1.964-1.964 2.945-4.622 3.437-7.743l.023-.15v.257c0 1.706.342 3.71.865 5.117.59 1.585 1.455 2.748 2.682 3.732 1.152.924 2.195 1.372 3.928 1.812 1.733.44 5.918.66 9.499.66h23.974V13.418c0-2.172-.299-4.141-.928-5.833-.63-1.693-1.44-3.181-2.917-4.365-1.385-1.11-2.74-1.786-4.825-2.315-2.085-.53-4.9-.906-9.207-.906h-21.166v10.293h21.299c4.457.032 4.95 1.873 4.95 2.692v.956h-14.999c-3.385 0-4.517.209-6.156.624-1.638.416-2.624.84-3.713 1.713-1.16.93-1.756 2.03-2.314 3.528a14.4 14.4 0 0 0-.526 1.869c.016-.526.022-.97.022-1.277v-2.516c0-6.617-1.186-11.128-3.928-13.87-2.698-2.698-7.32-3.947-15.632-3.947h-29.853l-35.63 28.539V12.417c0-2.01-.276-3.832-.859-5.398-.583-1.566-1.333-2.943-2.699-4.038-1.282-1.028-2.535-1.653-4.464-2.143C89.542.348 86.937 0 82.952 0Zm41.075.065v10.896h15.557L130.808.065Zm53.085 10.896h10.767c5.913 0 6.364 3.462 6.364 8.18 0 4.716-.451 8.177-6.364 8.177h-10.767Zm-81.109 11.9h13.258v5.51H74.583c-3.385 0-3.918-1.258-3.918-2.957 0-1.354.803-2.521 2.838-2.554zm126.555 0h12.164v5.51h-12.208c-3.385 0-3.628-1.258-3.628-2.957 0-1.354.543-2.554 3.672-2.554zm-76.084 4.457-14.097 10.896h29.38V27.318Z" paint-order="fill markers stroke"/>
</svg>
