<?xml version="1.0" encoding="UTF-8" standalone="no"?>
<!-- Generator: Adobe Illustrator 16.0.0, SVG Export Plug-In . SVG Version: 6.00 Build 0)  -->

<svg
   xmlns:dc="http://purl.org/dc/elements/1.1/"
   xmlns:cc="http://creativecommons.org/ns#"
   xmlns:rdf="http://www.w3.org/1999/02/22-rdf-syntax-ns#"
   xmlns:svg="http://www.w3.org/2000/svg"
   xmlns="http://www.w3.org/2000/svg"
   xmlns:sodipodi="http://sodipodi.sourceforge.net/DTD/sodipodi-0.dtd"
   xmlns:inkscape="http://www.inkscape.org/namespaces/inkscape"
   version="1.1"
   id="Layer_1"
   x="0px"
   y="0px"
   width="1000"
   height="1000.5203"
   viewBox="0 0 999.99998 1000.5203"
   enable-background="new 0 0 842 595"
   xml:space="preserve"
   inkscape:version="0.91 r13725"
   sodipodi:docname="Mercedes-Benz 2009.svg"><metadata
     id="metadata41"><rdf:RDF><cc:Work
         rdf:about=""><dc:format>image/svg+xml</dc:format><dc:type
           rdf:resource="http://purl.org/dc/dcmitype/StillImage" /><dc:title></dc:title></cc:Work></rdf:RDF></metadata><defs
     id="defs39" /><sodipodi:namedview
     pagecolor="#ffffff"
     bordercolor="#666666"
     borderopacity="1"
     objecttolerance="10"
     gridtolerance="10"
     guidetolerance="10"
     inkscape:pageopacity="0"
     inkscape:pageshadow="2"
     inkscape:window-width="1366"
     inkscape:window-height="705"
     id="namedview37"
     showgrid="false"
     fit-margin-top="0"
     fit-margin-left="0"
     fit-margin-right="0"
     fit-margin-bottom="0"
     inkscape:zoom="1"
     inkscape:cx="-138.684"
     inkscape:cy="-6.6279907"
     inkscape:window-x="-8"
     inkscape:window-y="-8"
     inkscape:window-maximized="1"
     inkscape:current-layer="Layer_1" /><path
     style="clip-rule:evenodd;fill:#73797c;fill-rule:evenodd"
     inkscape:connector-curvature="0"
     id="path35"
     d="M 732.04995,56.71176 C 891.25911,140.47867 1000,307.49219 1000,500 1000,692.5078 891.25911,860.04162 732.04995,943.28824 l 0,-57.23205 C 792.92404,849.6358 844.43288,798.64724 881.89386,738.29344 l -149.84391,-60.87409 0,-92.61186 164.41207,128.51197 C 930.80125,649.84391 950.05203,577.52341 950.05203,500 c 0,-163.37149 -87.40895,-306.97191 -218.00208,-386.05619 l 0,-57.23205 z M 500.52029,0 c 83.24662,0 161.81062,20.29136 231.52966,56.71176 l 0,57.23205 C 668.05411,75.44225 593.13215,52.54943 514.04787,49.94797 l 57.23205,409.4693 160.77003,125.39022 0,92.61186 -232.57024,-94.17273 -231.00937,94.69302 0,-92.09157 161.81062,-126.4308 56.71176,-409.4693 c -80.12487,2.60146 -154.52654,25.49428 -218.52238,63.99584 l 0,-57.23205 C 337.66909,20.29136 416.75338,0 500.52029,0 l 0,0 z m 231.52966,943.28824 c -69.71904,36.4204 -148.28304,57.23206 -231.52966,57.23206 -83.76691,0 -162.8512,-20.81166 -232.04995,-56.71177 l 0,-57.75234 c 67.63788,41.10302 147.24246,64.51613 232.04995,64.51613 84.2872,0 163.37149,-23.41311 231.52966,-64.51613 l 0,57.23205 z m -463.57961,0.52029 C 108.74089,860.04162 0,692.5078 0,500 0,307.49219 108.74089,140.47867 268.47034,56.71176 l 0,57.23205 C 137.35692,193.02809 49.947971,336.10822 49.947971,500 c 0,77.52341 19.771072,150.88449 54.110299,214.36004 l 164.41207,-128.51197 0,92.09157 -149.32362,61.39439 c 37.46098,59.8335 88.44953,110.30177 149.32362,146.72216 l 0,57.75234 z" /></svg>