<?xml version="1.0" encoding="UTF-8" standalone="no"?>
<svg
   xmlns:dc="http://purl.org/dc/elements/1.1/"
   xmlns:cc="http://creativecommons.org/ns#"
   xmlns:rdf="http://www.w3.org/1999/02/22-rdf-syntax-ns#"
   xmlns:svg="http://www.w3.org/2000/svg"
   xmlns="http://www.w3.org/2000/svg"
   xmlns:sodipodi="http://sodipodi.sourceforge.net/DTD/sodipodi-0.dtd"
   xmlns:inkscape="http://www.inkscape.org/namespaces/inkscape"
   viewBox="0 0 1587.4 1122.52"
   height="1122.52"
   width="1587.4"
   xml:space="preserve"
   id="svg2"
   version="1.1"
   sodipodi:docname="peugeot.svg"
   inkscape:version="0.92.4 (5da689c313, 2019-01-14)"><sodipodi:namedview
     pagecolor="#ffffff"
     bordercolor="#666666"
     borderopacity="1"
     objecttolerance="10"
     gridtolerance="10"
     guidetolerance="10"
     inkscape:pageopacity="0"
     inkscape:pageshadow="2"
     inkscape:window-width="1920"
     inkscape:window-height="1001"
     id="namedview490"
     showgrid="false"
     inkscape:pagecheckerboard="true"
     inkscape:zoom="0.42048248"
     inkscape:cx="1130.941"
     inkscape:cy="543.37311"
     inkscape:window-x="-9"
     inkscape:window-y="-9"
     inkscape:window-maximized="1"
     inkscape:current-layer="svg2" /><metadata
     id="metadata8"><rdf:RDF><cc:Work
         rdf:about=""><dc:format>image/svg+xml</dc:format><dc:type
           rdf:resource="http://purl.org/dc/dcmitype/StillImage" /><dc:title></dc:title></cc:Work></rdf:RDF></metadata><defs
     id="defs6"><clipPath
       id="clipPath18"
       clipPathUnits="userSpaceOnUse"><path
         id="path16"
         d="M 0,841.89 H 1190.55 V 0 H 0 Z" /></clipPath><clipPath
       id="clipPath30"
       clipPathUnits="userSpaceOnUse"><path
         id="path28"
         d="m 729.984,735.669 c -21.761,0.102 -43.816,-25.13 -39.629,-62.752 v 0 c 2.623,-23.027 6.125,-33.526 12.959,-48.409 v 0 c 3.389,-7.354 40.55,-78.11 42.264,-85.591 v 0 c 2.318,-10.711 0.253,-17.409 -7.97,-24.903 v 0 c -9.071,-8.215 -24.112,-17.543 -34.262,-21.043 v 0 c -2.395,-0.82 -4.606,-1.23 -6.606,-1.23 v 0 c -2.298,0 -8.036,0.78 -18.909,14.18 v 0 l 48.017,-64.079 c -6.126,8.191 -9.295,14.388 -8.175,19.822 v 0 c 1.09,5.338 9.832,11.175 19.892,19.1 v 0 c 10.085,7.841 21.234,17.727 26.346,31.106 v 0 c 1.495,3.807 2.137,7.759 2.137,11.893 v 0 c 0,12.774 -6.192,27.242 -13.619,42.929 v 0 c -9.597,20.352 -36.835,64.748 -45.1,95.872 v 0 c -2.04,7.637 -2.934,14.509 -2.934,20.607 v 0 c 0,17.637 7.501,28.831 16.691,32.626 v 0 c 4.405,1.779 8.346,2.389 11.637,2.389 v 0 c 5.046,0 8.54,-1.402 9.996,-2.169 v 0 c 2.575,-1.459 2.948,-4.527 2.948,-6.948 v 0 -0.529 c -0.007,-0.56 -0.089,-1.868 -0.089,-3.803 v 0 c 0,-7.264 0.984,-23.208 9.443,-38.688 v 0 c 10.661,-19.665 28.596,-30.638 35.649,-33.601 v 0 c 0.593,-0.259 -16.488,63.107 -19.561,75.06 v 0 c -3.534,13.928 -13.366,27.881 -40.864,28.161 v 0 c -0.032,0.014 -0.067,0.022 -0.109,0.022 v 0 c -0.041,0 -0.091,-0.008 -0.152,-0.022" /></clipPath><linearGradient
       id="linearGradient50"
       spreadMethod="pad"
       gradientTransform="matrix(-153.67261,-235.36678,-235.36678,153.67261,799.37695,712.24121)"
       gradientUnits="userSpaceOnUse"
       y2="0"
       x2="1"
       y1="0"
       x1="0"><stop
         id="stop36"
         offset="0"
         style="stop-opacity:1;stop-color:#b5b3b3" /><stop
         id="stop38"
         offset="0.203293"
         style="stop-opacity:1;stop-color:#b5b3b3" /><stop
         id="stop40"
         offset="0.29591383"
         style="stop-opacity:1;stop-color:#2d2d2c" /><stop
         id="stop42"
         offset="0.368134"
         style="stop-opacity:1;stop-color:#2d2d2c" /><stop
         id="stop44"
         offset="0.5333305"
         style="stop-opacity:1;stop-color:#2d2d2c" /><stop
         id="stop46"
         offset="0.813187"
         style="stop-opacity:1;stop-color:#898685" /><stop
         id="stop48"
         offset="1"
         style="stop-opacity:1;stop-color:#000000" /></linearGradient><clipPath
       id="clipPath60"
       clipPathUnits="userSpaceOnUse"><path
         id="path58"
         d="m 431.173,594.885 c 4.186,-4.196 -3.111,-3.957 -25.247,-5.883 v 0 c -22.542,-1.958 -45.246,-6.505 -57.118,-10.962 v 0 c -8.687,-3.278 -13.953,-5.595 -17.423,-13.567 v 0 c 0,0 -7.216,-15.687 -8.182,-21.886 v 0 c -0.456,-2.935 -0.317,-4.626 1.21,-7.092 v 0 c 0.853,-1.306 2.934,40.904 57.411,43.678 v 0 c 48.203,2.457 60.068,7.517 50.649,16.729 v 0 z" /></clipPath><linearGradient
       id="linearGradient78"
       spreadMethod="pad"
       gradientTransform="matrix(27.8461,63.776642,63.776642,-27.8461,367.74756,541.38379)"
       gradientUnits="userSpaceOnUse"
       y2="0"
       x2="1"
       y1="0"
       x1="0"><stop
         id="stop66"
         offset="0"
         style="stop-opacity:1;stop-color:#8c8889" /><stop
         id="stop68"
         offset="0.0310364"
         style="stop-opacity:1;stop-color:#8c8889" /><stop
         id="stop70"
         offset="0.12597195"
         style="stop-opacity:1;stop-color:#8c8889" /><stop
         id="stop72"
         offset="0.199997"
         style="stop-opacity:1;stop-color:#8c8889" /><stop
         id="stop74"
         offset="0.989655"
         style="stop-opacity:1;stop-color:#3f3e3d" /><stop
         id="stop76"
         offset="1"
         style="stop-opacity:1;stop-color:#3f3e3d" /></linearGradient><clipPath
       id="clipPath88"
       clipPathUnits="userSpaceOnUse"><path
         id="path86"
         d="m 732.47,716.256 c -2.956,0 -6.491,-0.524 -10.489,-2.182 v 0 c -7.606,-3.076 -14.57,-12.609 -14.895,-28.828 v 0 l 0.08,-3.709 c 0,0 1.041,11.036 2.999,16.232 v 0 c 4.853,14.05 13.831,16.975 20.031,16.975 v 0 c 4.153,0 6.028,-0.994 7.801,-2.851 v 0 c 1.365,-1.5 2.258,-2.874 2.446,-4.986 v 0 c 0.154,-6.277 0.406,-13.489 6.5,-29.749 v 0 c 0.359,-0.989 0.748,-1.972 1.162,-2.922 v 0 c -5.16,13.135 -5.785,25.329 -5.785,31.553 v 0 c -0.024,1.995 0.074,4.312 0.074,4.312 v 0 c 0.024,4.77 -5.201,6.155 -9.901,6.155 v 0 c -0.007,0 -0.015,0 -0.023,0" /></clipPath><linearGradient
       id="linearGradient106"
       spreadMethod="pad"
       gradientTransform="matrix(-34.301681,3.244873,3.244873,34.301681,747.96387,694.57178)"
       gradientUnits="userSpaceOnUse"
       y2="0"
       x2="1"
       y1="0"
       x1="0"><stop
         id="stop94"
         offset="0"
         style="stop-opacity:1;stop-color:#2d2d2c" /><stop
         id="stop96"
         offset="0.196548"
         style="stop-opacity:1;stop-color:#2d2d2c" /><stop
         id="stop98"
         offset="0.32606323"
         style="stop-opacity:1;stop-color:#2d2d2c" /><stop
         id="stop100"
         offset="0.358627"
         style="stop-opacity:1;stop-color:#ffffff" /><stop
         id="stop102"
         offset="0.824142"
         style="stop-opacity:1;stop-color:#2d2d2c" /><stop
         id="stop104"
         offset="1"
         style="stop-opacity:1;stop-color:#1a1919" /></linearGradient><clipPath
       id="clipPath116"
       clipPathUnits="userSpaceOnUse"><path
         id="path114"
         d="m 433.075,593.049 c 1.633,-4.458 -4.884,-3.409 -27.019,-5.331 v 0 c -22.542,-1.962 -45.262,-6.325 -57.143,-10.787 v 0 c -8.694,-3.275 -13.944,-5.592 -17.422,-13.567 v 0 c 0,0 -7.232,-15.702 -8.207,-21.899 v 0 c -0.455,-2.922 0.268,-4.636 1.812,-7.069 v 0 c 2.309,-3.653 3.795,-4.437 7.167,-2.509 v 0 c 2.739,1.568 14.781,8.4 22.681,8.55 v 0 c 7.199,0.158 10.368,-4.233 11.423,-7.993 v 0 c 0.643,-2.331 3.82,-1.12 4.373,-0.978 v 0 c 3.152,0.796 6.225,1.743 17.496,2.555 v 0 c 13.383,0.984 65.593,0.54 84.763,0.089 v 0 c 17.243,-0.396 85.143,-53.671 86.136,-53.92 v 0 l 3.429,6.867 c -23.062,19.072 -108.76,87.01 -129.465,107.272 v 0 z" /></clipPath><linearGradient
       id="linearGradient132"
       spreadMethod="pad"
       gradientTransform="matrix(28.220993,64.635284,64.635284,-28.220993,439.36475,507.70117)"
       gradientUnits="userSpaceOnUse"
       y2="0"
       x2="1"
       y1="0"
       x1="0"><stop
         id="stop122"
         offset="0"
         style="stop-opacity:1;stop-color:#b5b3b3" /><stop
         id="stop124"
         offset="0.20684707"
         style="stop-opacity:1;stop-color:#8c8889" /><stop
         id="stop126"
         offset="0.368134"
         style="stop-opacity:1;stop-color:#8c8889" /><stop
         id="stop128"
         offset="0.989655"
         style="stop-opacity:1;stop-color:#000000" /><stop
         id="stop130"
         offset="1"
         style="stop-opacity:1;stop-color:#000000" /></linearGradient><clipPath
       id="clipPath142"
       clipPathUnits="userSpaceOnUse"><path
         id="path140"
         d="m 364.499,671.836 c -4.258,-0.545 -7.15,-0.757 -11.637,-4.926 v 0 c -4.404,-4.102 -12.059,-9.677 -15.033,-15.35 v 0 c -1.136,-2.145 -1.706,-3.644 -1.43,-5.599 v 0 c 0.455,-2.75 1.747,-5.672 2.495,-6.577 v 0 c 0.821,-0.971 1.909,-1.431 4.136,-0.818 v 0 c 4.591,1.253 12.709,2.32 17.633,2.162 v 0 c 3.495,-0.052 8.533,-0.939 10.856,-3.578 v 0 c 3.089,-3.6 2.877,-6.583 2.976,-8.127 v 0 c 0.016,-0.694 0.26,-2 1.754,-2.223 v 0 c 3.087,-0.426 6.42,-0.426 9.98,-1.218 v 0 c 10.027,-2.203 23.516,-10.735 36.095,-22.322 v 0 c 24.387,-22.497 54.689,-56.173 83.74,-79.351 v 0 c 14.682,-11.703 38.801,-26.362 46.765,-34.341 v 0 c 1.478,-1.475 -1.707,-2.568 -4.113,-1.349 v 0 c -1.121,0.544 -14.805,11.299 -17.795,12.035 v 0 c -2.528,0.63 -5.185,0.003 -7.801,-3.645 v 0 C 500.334,465.124 474.104,412.274 463.409,387.228 v 0 c -2.503,-5.948 -4.656,-13.425 -4.323,-20.169 v 0 c 0.325,-6.778 1.057,-20.266 1.162,-26.612 v 0 c 0.073,-6.218 -1.455,-8.702 -8.832,-9.89 v 0 c -13.538,-2.08 -43.63,-7.493 -51.276,-9.369 v 0 c -5.786,-1.397 -10.636,-4.022 -12.855,-10.726 v 0 c -3.194,-9.711 -5.779,-24.623 -6.023,-28.263 v 0 c -0.153,-2.243 0.643,-3.794 3.243,-3.144 v 0 c 11.051,2.779 28.116,5.005 51.593,4.557 v 0 c 23.492,-0.512 65.39,-4.639 70.819,-5.133 v 0 c 1.868,-0.171 4.135,-0.204 4.111,1.973 v 0 c -0.04,2.504 -0.666,13.83 -0.83,28.311 v 0 c -0.153,14.466 12.45,25.086 29.905,43.175 v 0 c 17.511,18.153 59.71,59.766 61.294,61.213 v 0 c 1.049,1.04 2.187,2.052 0.05,4.135 v 0 c -2.958,2.829 -16.423,16.737 -17.95,18.329 v 0 c -0.781,0.845 -2.488,2.998 -1.829,3.749 v 0 c 0.65,0.765 2.258,-0.482 4.332,-2.189 v 0 c 8.149,-6.626 97.373,-78.462 103.573,-81.264 v 0 c 6.355,-2.764 10.248,-3.593 15.927,-4.584 v 0 c 4.29,-0.78 8.029,-7.11 8.655,-11.831 v 0 c 0.601,-4.713 0.324,-10.97 -6.265,-12.595 v 0 c -6.542,-1.634 -22.753,-4.632 -28.45,-6.208 v 0 c -5.744,-1.578 -9.571,-4.154 -12.026,-10.719 v 0 c -2.471,-6.607 -5.681,-24.565 -5.739,-26.084 v 0 c -0.071,-3.974 0.984,-4.283 4.023,-3.536 v 0 c 3.763,0.871 8.175,2.129 25.233,2.707 v 0 c 28.709,1.014 72.386,-2.682 78.017,-3.13 v 0 c 1.927,-0.177 3.495,1.781 4.186,2.984 v 0 c 6.078,10.498 4.354,13.188 12.53,19.818 v 0 c 4.242,3.414 6.266,4.081 3.607,10.134 v 0 c -26.669,60.717 -52.039,101.929 -93.116,154.558 v 0 c -26.368,33.755 -57.118,71.122 -67.454,83.535 v 0 l -123.978,70.917 c -7.355,3.486 -64.675,32.824 -74.55,37.737 v 0 c -9.896,4.887 -17.893,8.876 -27.985,11.157 v 0 c -7.086,1.612 -14.116,2.175 -20.667,2.175 v 0 c -6.228,0 -12.024,-0.509 -17.022,-1.11" /></clipPath><linearGradient
       id="linearGradient172"
       spreadMethod="pad"
       gradientTransform="matrix(-504.129,512.86029,512.86029,504.129,713.89355,203.01855)"
       gradientUnits="userSpaceOnUse"
       y2="0"
       x2="1"
       y1="0"
       x1="0"><stop
         id="stop148"
         offset="0"
         style="stop-opacity:1;stop-color:#676564" /><stop
         id="stop150"
         offset="0.0769196"
         style="stop-opacity:1;stop-color:#676564" /><stop
         id="stop152"
         offset="0.12088"
         style="stop-opacity:1;stop-color:#726f6f" /><stop
         id="stop154"
         offset="0.170334"
         style="stop-opacity:1;stop-color:#52504f" /><stop
         id="stop156"
         offset="0.307693"
         style="stop-opacity:1;stop-color:#676564" /><stop
         id="stop158"
         offset="0.472534"
         style="stop-opacity:1;stop-color:#e6e5e5" /><stop
         id="stop160"
         offset="0.55614911"
         style="stop-opacity:1;stop-color:#e6e5e5" /><stop
         id="stop162"
         offset="0.6978"
         style="stop-opacity:1;stop-color:#e6e5e5" /><stop
         id="stop164"
         offset="0.72115558"
         style="stop-opacity:1;stop-color:#e6e5e5" /><stop
         id="stop166"
         offset="0.840652"
         style="stop-opacity:1;stop-color:#565454" /><stop
         id="stop168"
         offset="0.961533"
         style="stop-opacity:1;stop-color:#2d2d2c" /><stop
         id="stop170"
         offset="1"
         style="stop-opacity:1;stop-color:#2d2d2c" /></linearGradient><clipPath
       id="clipPath182"
       clipPathUnits="userSpaceOnUse"><path
         id="path180"
         d="m 502.724,729.977 c -17.837,-4.798 -40.648,-14.094 -41.477,-14.566 v 0 c -0.47,-0.309 -0.406,-0.756 -0.154,-1.288 v 0 c 0.212,-0.487 2.6,-4.624 2.6,-4.624 v 0 c 0,0 1.211,-2.795 4.641,-4.733 v 0 c 3.405,-1.926 6.761,-2.744 7.638,-2.933 v 0 c 0.878,-0.188 1.285,0.187 1.592,0.649 v 0 c 0.269,0.39 3.642,6.83 15.976,10.036 v 0 c 6.681,1.69 10.939,1.889 12.97,1.889 v 0 c 3.218,-0.081 8.207,-1.67 10.987,-4.363 v 0 c 4.517,-4.453 8.467,-11.824 9.15,-15.359 v 0 c 0.731,-3.417 0.162,-7.683 -3.267,-9.458 v 0 c -3.405,-1.747 -13.391,-4.112 -19.641,-4.742 v 0 c -6.493,-0.622 -12.799,-0.321 -16.528,1.841 v 0 c -0.61,0.328 -1.033,0.381 -1.61,-0.07 v 0 c -1.406,-1.173 -2.25,-2.132 -5.045,-3.782 v 0 c -0.602,-0.35 -1,-1.127 -0.391,-2.333 v 0 c 0.593,-1.193 8.419,-14.179 13.148,-17.662 v 0 c 4.714,-3.538 7.233,-1.952 12.88,1.178 v 0 c 5.664,3.126 9.484,6.957 15.351,6.762 v 0 c 5.956,-0.171 11.002,-5.221 11.912,-11.104 v 0 c 1.129,-7.134 -3.461,-11.804 -6.232,-16.204 v 0 c -2.724,-4.315 -8.33,-10.754 -11.206,-14.345 v 0 c -3.641,-4.637 -10.637,-3.236 -10.637,-3.236 v 0 c 0,0 33.015,-16.775 52.021,-26.319 v 0 c 7.525,-3.819 19.341,-0.272 27.378,14.736 v 0 c 1.87,3.487 13.733,28.619 16.708,36.112 v 0 c 2.982,7.463 7.198,15.748 0.414,29.998 v 0 c -6.81,14.22 -27.905,40.488 -36.3,50.571 v 0 c -4.403,5.263 -9.572,8.484 -20.721,9.095 v 0 c -1.443,0.079 -2.933,0.119 -4.469,0.119 v 0 c -10.171,0 -22.455,-1.767 -37.688,-5.865" /></clipPath><radialGradient
       id="radialGradient204"
       spreadMethod="pad"
       gradientTransform="matrix(114.96794,0,0,-114.96794,495.74414,648.96338)"
       gradientUnits="userSpaceOnUse"
       r="1"
       cy="0"
       cx="0"
       fy="0"
       fx="0"><stop
         id="stop188"
         offset="0"
         style="stop-opacity:1;stop-color:#ffffff" /><stop
         id="stop190"
         offset="0.0357208"
         style="stop-opacity:1;stop-color:#ffffff" /><stop
         id="stop192"
         offset="0.09862838"
         style="stop-opacity:1;stop-color:#ffffff" /><stop
         id="stop194"
         offset="0.467026"
         style="stop-opacity:1;stop-color:#ffffff" /><stop
         id="stop196"
         offset="0.60305584"
         style="stop-opacity:1;stop-color:#ffffff" /><stop
         id="stop198"
         offset="0.747253"
         style="stop-opacity:1;stop-color:#726f6f" /><stop
         id="stop200"
         offset="0.846161"
         style="stop-opacity:1;stop-color:#52504f" /><stop
         id="stop202"
         offset="1"
         style="stop-opacity:1;stop-color:#2d2d2c" /></radialGradient><clipPath
       id="clipPath214"
       clipPathUnits="userSpaceOnUse"><path
         id="path212"
         d="M 0,841.89 H 1190.55 V 0 H 0 Z" /></clipPath><clipPath
       id="clipPath222"
       clipPathUnits="userSpaceOnUse"><path
         id="path220"
         d="m 480.255,683.939 h 42.638 V 657.2 h -42.638 z" /></clipPath><clipPath
       id="clipPath226"
       clipPathUnits="userSpaceOnUse"><path
         id="path224"
         d="m 522.893,683.939 c -3.333,-1.622 -13.133,-3.803 -19.244,-4.369 -6.354,-0.596 -12.546,-0.304 -16.195,1.687 -0.593,0.292 -1.016,0.347 -1.568,-0.065 -1.381,-1.086 -2.211,-1.978 -4.924,-3.489 -0.61,-0.326 -1.008,-1.057 -0.415,-2.158 0.594,-1.097 7.647,-12.97 12.45,-16.375 4.802,-3.457 7.354,-1.913 13.107,1.151 5.753,3.066 9.629,6.821 15.602,6.631 z" /></clipPath><radialGradient
       id="radialGradient240"
       spreadMethod="pad"
       gradientTransform="matrix(40.590683,0,0,-39.11319,521.54541,672.16504)"
       gradientUnits="userSpaceOnUse"
       r="1"
       cy="0"
       cx="0"
       fy="0"
       fx="0"><stop
         id="stop228"
         offset="0"
         style="stop-opacity:1;stop-color:#ffffff" /><stop
         id="stop230"
         offset="0.0357208"
         style="stop-opacity:1;stop-color:#ffffff" /><stop
         id="stop232"
         offset="0.06370496"
         style="stop-opacity:1;stop-color:#ffffff" /><stop
         id="stop234"
         offset="0.227585"
         style="stop-opacity:1;stop-color:#ffffff" /><stop
         id="stop236"
         offset="0.42322655"
         style="stop-opacity:1;stop-color:#ffffff" /><stop
         id="stop238"
         offset="1"
         style="stop-opacity:1;stop-color:#000000" /></radialGradient><clipPath
       id="clipPath262"
       clipPathUnits="userSpaceOnUse"><path
         id="path260"
         d="M 462.117,728.047 H 506.51 V 701.783 H 462.117 Z" /></clipPath><clipPath
       id="clipPath266"
       clipPathUnits="userSpaceOnUse"><path
         id="path264"
         d="m 501.837,728.047 c -16.95,-4.368 -38.598,-12.799 -39.387,-13.225 -0.454,-0.285 -0.381,-1.211 -0.154,-1.702 0.212,-0.439 2.462,-4.19 2.462,-4.19 0,0 1.138,-2.547 4.405,-4.298 3.242,-1.748 5.932,-2.609 6.809,-2.799 0.878,-0.188 1.284,0.187 1.592,0.649 0.269,0.39 3.642,6.83 15.977,10.036 6.68,1.69 10.938,1.889 12.969,1.889 z" /></clipPath><radialGradient
       id="radialGradient280"
       spreadMethod="pad"
       gradientTransform="matrix(47.734726,0,0,-47.734726,496.1665,735.8999)"
       gradientUnits="userSpaceOnUse"
       r="1"
       cy="0"
       cx="0"
       fy="0"
       fx="0"><stop
         id="stop268"
         offset="0"
         style="stop-opacity:1;stop-color:#ffffff" /><stop
         id="stop270"
         offset="0.230774"
         style="stop-opacity:1;stop-color:#ffffff" /><stop
         id="stop272"
         offset="0.28045945"
         style="stop-opacity:1;stop-color:#ffffff" /><stop
         id="stop274"
         offset="0.571426"
         style="stop-opacity:1;stop-color:#eae9ea" /><stop
         id="stop276"
         offset="0.86264"
         style="stop-opacity:1;stop-color:#000000" /><stop
         id="stop278"
         offset="1"
         style="stop-opacity:1;stop-color:#000000" /></radialGradient><clipPath
       id="clipPath302"
       clipPathUnits="userSpaceOnUse"><path
         id="path300"
         d="m 507.16,654.307 h 93.888 V 593.639 H 507.16 Z" /></clipPath><clipPath
       id="clipPath306"
       clipPathUnits="userSpaceOnUse"><path
         id="path304"
         d="m 533.578,654.307 c 1.13,-7.14 -3.454,-12.307 -6.232,-16.691 -2.747,-4.324 -8.354,-10.77 -11.198,-14.363 -3.657,-4.623 -8.988,-2.609 -8.988,-2.609 0,0 31.236,-15.889 50.243,-25.434 7.525,-3.818 18.91,-1.218 26.922,13.803 1.869,3.486 13.775,28.627 16.723,36.104 z" /></clipPath><radialGradient
       id="radialGradient328"
       spreadMethod="pad"
       gradientTransform="matrix(160.81078,0,0,-160.81078,576.16748,642.75537)"
       gradientUnits="userSpaceOnUse"
       r="1"
       cy="0"
       cx="0"
       fy="0"
       fx="0"><stop
         id="stop308"
         offset="0"
         style="stop-opacity:1;stop-color:#ffffff" /><stop
         id="stop310"
         offset="0.0357208"
         style="stop-opacity:1;stop-color:#ffffff" /><stop
         id="stop312"
         offset="0.06737493"
         style="stop-opacity:1;stop-color:#ffffff" /><stop
         id="stop314"
         offset="0.252747"
         style="stop-opacity:1;stop-color:#ffffff" /><stop
         id="stop316"
         offset="0.29809271"
         style="stop-opacity:1;stop-color:#ffffff" /><stop
         id="stop318"
         offset="0.346161"
         style="stop-opacity:1;stop-color:#7f7c7c" /><stop
         id="stop320"
         offset="0.412094"
         style="stop-opacity:1;stop-color:#52504f" /><stop
         id="stop322"
         offset="0.472534"
         style="stop-opacity:1;stop-color:#2d2d2c" /><stop
         id="stop324"
         offset="0.857147"
         style="stop-opacity:1;stop-color:#2d2d2c" /><stop
         id="stop326"
         offset="1"
         style="stop-opacity:1;stop-color:#2d2d2c" /></radialGradient><clipPath
       id="clipPath350"
       clipPathUnits="userSpaceOnUse"><path
         id="path348"
         d="m 425.55,553.959 c -7.996,-0.463 -26.751,-2.183 -32.13,-3.405 v 0 c -5.21,-1.215 -13.822,-8.265 -14.968,-9.46 v 0 c -1.934,-2.043 -1.926,-3.766 -0.464,-4.354 v 0 c 1.236,-0.487 3.974,-0.073 6.176,0.113 v 0 c 6.599,0.557 24.508,1.114 44.807,1.154 v 0 c 10.527,0.027 21.978,-0.093 31.022,-0.214 v 0 c 9.387,-0.125 16.178,-0.25 16.646,-0.209 v 0 c -7.834,8.513 -14.465,18.841 -17.113,18.966 v 0 c -0.062,0.003 -0.136,0.004 -0.225,0.004 v 0 c -3.755,0 -31.535,-2.485 -33.751,-2.595" /></clipPath><linearGradient
       id="linearGradient370"
       spreadMethod="pad"
       gradientTransform="matrix(-78.728241,-19.682129,-19.682129,78.728241,463.83545,551.271)"
       gradientUnits="userSpaceOnUse"
       y2="0"
       x2="1"
       y1="0"
       x1="0"><stop
         id="stop356"
         offset="0"
         style="stop-opacity:1;stop-color:#e6e5e5" /><stop
         id="stop358"
         offset="0.24238556"
         style="stop-opacity:1;stop-color:#999696" /><stop
         id="stop360"
         offset="0.25824"
         style="stop-opacity:1;stop-color:#999696" /><stop
         id="stop362"
         offset="0.37944589"
         style="stop-opacity:1;stop-color:#e6e5e5" /><stop
         id="stop364"
         offset="0.648346"
         style="stop-opacity:1;stop-color:#e6e5e5" /><stop
         id="stop366"
         offset="0.895599"
         style="stop-opacity:1;stop-color:#ffffff" /><stop
         id="stop368"
         offset="1"
         style="stop-opacity:1;stop-color:#ffffff" /></linearGradient><clipPath
       id="clipPath380"
       clipPathUnits="userSpaceOnUse"><path
         id="path378"
         d="M 0,841.89 H 1190.55 V 0 H 0 Z" /></clipPath><clipPath
       id="clipPath392"
       clipPathUnits="userSpaceOnUse"><path
         id="path390"
         d="m 499.327,757.255 c -7.022,-4.248 -7.314,-9.477 -12.23,-12.319 v 0 c -4.883,-2.851 -16.131,-5.41 -27.93,-10.701 v 0 c -6.5,-2.897 -6.541,-3.377 -4.989,-7.046 v 0 c 0.617,-1.543 4.86,-9.251 7.013,-9.251 v 0 c 2.121,-0.065 4.706,1.037 7.321,2.093 v 0 c 3.479,1.373 26.752,10.377 45.247,14.334 v 0 c 20.583,4.404 42.71,4.779 50.568,-3.539 v 0 c 11.953,-12.648 32.95,-41.028 39.314,-53.336 v 0 c 6.248,-12.172 5.615,-18.083 1.453,-30.578 v 0 c -3.835,-11.538 -18.331,-41.532 -22.59,-47.744 v 0 c -4.298,-6.22 -9.482,-9.679 -21.899,-4.607 v 0 c -13.311,5.475 -62.326,30.619 -72.98,36.006 v 0 c -7.224,3.636 -37.526,18.978 -60.433,30.472 v 0 c -8.476,4.254 -15.464,7.341 -23.079,9.265 v 0 c -16.845,4.286 -34.965,2.363 -43.319,0.975 v 0 c -3.795,-0.627 -6.192,-6.753 -6.014,-9.235 v 0 c 0.16,-2.039 4.088,-1.776 8.865,-1.514 v 0 c 2.462,0.136 5.149,0.271 7.664,0.092 v 0 c 5.973,-0.411 26.409,-2.625 38.2,-7.404 v 0 c 12.442,-5.037 74.776,-38.615 90.533,-47.086 v 0 C 619.965,540.887 671.273,498.881 763.96,343.136 v 0 c 4.136,-6.955 6.118,-15.511 -0.407,-17.453 v 0 c -9.492,-2.772 -49.049,-10.297 -60.986,-14.206 v 0 c -10.06,-3.323 -11.393,-4.112 -12.88,-9.075 v 0 c -1.633,-5.681 -4.161,-16.928 -3.575,-19.188 v 0 c 0.268,-0.933 -0.543,-2.136 1.511,-2.136 v 0 c 11.126,0 51.008,-0.057 81.748,-2.958 v 0 c 3.698,-0.375 3.894,-0.284 6.226,3.258 v 0 c 2.689,4.128 13.325,16.302 20.331,21.462 v 0 c 2.926,2.186 0.965,6.239 0.471,7.565 v 0 c -8.784,22.12 -33.587,70.102 -67.584,120.005 v 0 c -33.334,49.085 -89.865,115.572 -97.668,126.615 v 0 c -7.663,10.825 -10.653,23.002 5.282,28.036 v 0 c 10.393,3.304 35.47,8.487 45.71,11.356 v 0 c 9.961,2.73 10.676,5.973 11.513,13.685 v 0 c 0.871,8.346 -1.412,48.846 -6.443,72.966 v 0 c -1.041,5.006 -4.412,9.188 -8.428,12.031 v 0 c -3.541,2.484 -17.315,14.477 -24.93,23.169 v 0 c -8.727,9.978 -12.692,19.38 -14.123,26.607 v 0 c 0,0 -0.236,1.581 -1.993,3.224 v 0 c -0.622,0.644 -1.12,0.966 -2.167,1.572 v 0 c -14.992,9.218 -67.95,23.699 -78.758,24.634 v 0 c -0.574,0.052 -1.262,0.08 -2.053,0.08 v 0 c -9.398,0 -33.41,-3.896 -55.43,-17.13" /></clipPath><linearGradient
       id="linearGradient422"
       spreadMethod="pad"
       gradientTransform="matrix(360.59656,-439.33813,-439.33813,-360.59656,459.94727,749.1792)"
       gradientUnits="userSpaceOnUse"
       y2="0"
       x2="1"
       y1="0"
       x1="0"><stop
         id="stop398"
         offset="0"
         style="stop-opacity:1;stop-color:#ffffff" /><stop
         id="stop400"
         offset="0.0689697"
         style="stop-opacity:1;stop-color:#cbc9c9" /><stop
         id="stop402"
         offset="0.156509"
         style="stop-opacity:1;stop-color:#ffffff" /><stop
         id="stop404"
         offset="0.19664868"
         style="stop-opacity:1;stop-color:#ffffff" /><stop
         id="stop406"
         offset="0.203293"
         style="stop-opacity:1;stop-color:#ffffff" /><stop
         id="stop408"
         offset="0.31171835"
         style="stop-opacity:1;stop-color:#b5b3b3" /><stop
         id="stop410"
         offset="0.329666"
         style="stop-opacity:1;stop-color:#b5b3b3" /><stop
         id="stop412"
         offset="0.38594283"
         style="stop-opacity:1;stop-color:#ffffff" /><stop
         id="stop414"
         offset="0.502029"
         style="stop-opacity:1;stop-color:#ffffff" /><stop
         id="stop416"
         offset="0.885178"
         style="stop-opacity:1;stop-color:#ffffff" /><stop
         id="stop418"
         offset="0.979645"
         style="stop-opacity:1;stop-color:#979394" /><stop
         id="stop420"
         offset="1"
         style="stop-opacity:1;stop-color:#979394" /></linearGradient><clipPath
       id="clipPath432"
       clipPathUnits="userSpaceOnUse"><path
         id="path430"
         d="m 357.485,659.852 c 3.716,0 12.361,0.285 18.179,-0.365 v 0 c 11.166,-1.206 25.256,-4.31 34.105,-7.731 v 0 c 12.588,-4.893 71.64,-40.11 86.917,-48.63 v 0 c 45.985,-26.081 80.968,-50.041 113.788,-76.487 v 0 c 50.169,-40.415 93.482,-87.275 147.781,-182.374 v 0 c 2.145,-3.688 3.282,-6.516 3.282,-9.954 v 0 c 0.195,-5.321 -4.379,-7.224 -5.914,-7.662 v 0 c -9.338,-2.803 -47.676,-11.434 -59.045,-15.35 v 0 c -9.646,-3.414 -11.418,-5.542 -12.807,-10.012 v 0 c -0.505,-1.853 -2.136,-10.906 -4.038,-13.311 v 0 c -1.902,-2.47 -6.314,-2.99 -11.011,-2.99 v 0 c -2.893,0 -4.33,-0.162 -4.03,3.056 v 0 c 0.251,3.21 2.16,11.897 3.266,16.893 v 0 c 1.089,5.03 3.153,8.784 7.728,11.548 v 0 c 4.559,2.779 20.469,5.347 29.409,7.558 v 0 c 8.939,2.169 9.409,6.321 9.256,13.074 v 0 c 0,-7.16 -2.479,-8.881 -11.452,-10.905 v 0 c -9.107,-2.023 -24.417,-3.998 -29.471,-7.426 v 0 c -4.853,-3.341 -6.771,-7.99 -7.648,-11.663 v 0 c -3.072,-12.7 -5.143,-22.005 -4.786,-25.125 v 0 c 0.277,-2.771 1.398,-3.161 4.486,-2.812 v 0 c 3.08,0.358 10.784,1.447 22.354,1.878 v 0 c 3.422,0 3.185,4.144 3.13,8.728 v 0 c 0,1.665 0.08,6.622 0.95,9.043 v 0 c 0.837,2.429 2.682,4.648 5.614,5.542 v 0 c 6.428,1.982 42.037,11.612 60.15,16.999 v 0 c 7.939,2.358 11.23,4.876 10.514,12.1 v 0 c -0.617,6.331 -6.436,15.724 -16.747,31.879 v 0 c -10.376,16.26 -23.42,38.461 -40.768,63.041 v 0 c -30.814,43.622 -61.157,77.694 -98.861,107.515 v 0 c -27.832,22.014 -57.053,39.674 -78.473,52.232 v 0 c -21.437,12.547 -111.913,62.022 -125.93,66.425 v 0 c -12.767,3.998 -22.908,5.307 -31.952,6.23 v 0 c -6.151,0.621 -11.319,0.161 -16.805,0.161 v 0 c -5.184,0 -3.355,4.211 -2.641,5.873 v 0 c -0.529,-1.175 -3.64,-6.978 1.47,-6.978" /></clipPath><linearGradient
       id="linearGradient448"
       spreadMethod="pad"
       gradientTransform="matrix(368.54044,-350.03632,-350.03632,-368.54044,368.44629,663.91504)"
       gradientUnits="userSpaceOnUse"
       y2="0"
       x2="1"
       y1="0"
       x1="0"><stop
         id="stop438"
         offset="0"
         style="stop-opacity:1;stop-color:#c4c2c2" /><stop
         id="stop440"
         offset="0.32699024"
         style="stop-opacity:1;stop-color:#2d2d2c" /><stop
         id="stop442"
         offset="0.506897"
         style="stop-opacity:1;stop-color:#2d2d2c" /><stop
         id="stop444"
         offset="0.71651135"
         style="stop-opacity:1;stop-color:#2d2d2c" /><stop
         id="stop446"
         offset="1"
         style="stop-opacity:1;stop-color:#c4c2c2" /></linearGradient><clipPath
       id="clipPath458"
       clipPathUnits="userSpaceOnUse"><path
         id="path456"
         d="m 522.347,496.719 c -3.469,-4.201 -21.216,-32.39 -35.592,-58.711 v 0 c -10.426,-19.063 -22.908,-46.099 -25.345,-52.65 v 0 c -2.21,-5.971 -2.617,-11.457 -2.388,-18.184 v 0 c 0.194,-6.671 1.316,-17.537 1.706,-25.338 v 0 c 0.382,-7.491 -1.528,-10.776 -9.312,-12.189 v 0 c -6.591,-1.187 -41.687,-7.07 -50.326,-9.166 v 0 c -8.653,-2.113 -11.359,-6.403 -13.033,-12.758 v 0 c -1.723,-6.323 -4.218,-18.332 -4.307,-21.063 v 0 c -0.074,-2.673 0.268,-3.2 2.786,-2.877 v 0 c 2.471,0.359 7.786,0.828 9.938,0.977 v 0 c 2.244,0.162 1.797,1.818 2.479,4.192 v 0 c 0.642,2.138 1.074,5.713 2.374,11.23 v 0 c 1.284,5.508 3.021,9.783 10.644,12.033 v 0 c 7.623,2.253 42.126,7.794 47.969,9.404 v 0 c 5.825,1.61 9.548,4.112 10.197,9.946 v 0 c 0.651,5.786 -0.535,18.17 -0.706,28.229 v 0 c -0.155,10.533 -0.284,15.245 5.647,26.621 v 0 c 11.45,21.892 47.026,73.651 71.022,103.649 v 0 c 0,0 -2.259,1.677 -5.095,3.751 v 0 c -3.551,2.582 -8.037,5.806 -10.506,6.577 v 0 c -0.774,0.243 -1.471,0.362 -2.121,0.362 v 0 c -2.219,0 -3.875,-1.395 -6.031,-4.035" /></clipPath><linearGradient
       id="linearGradient490"
       spreadMethod="pad"
       gradientTransform="matrix(-143.60716,-214.69199,-214.69199,143.60716,546.05664,494.52686)"
       gradientUnits="userSpaceOnUse"
       y2="0"
       x2="1"
       y1="0"
       x1="0"><stop
         id="stop464"
         offset="0"
         style="stop-opacity:1;stop-color:#a7a5a5" /><stop
         id="stop466"
         offset="0.100006"
         style="stop-opacity:1;stop-color:#ffffff" /><stop
         id="stop468"
         offset="0.349213"
         style="stop-opacity:1;stop-color:#e0dedf" /><stop
         id="stop470"
         offset="0.48995369"
         style="stop-opacity:1;stop-color:#ffffff" /><stop
         id="stop472"
         offset="0.538467"
         style="stop-opacity:1;stop-color:#ffffff" /><stop
         id="stop474"
         offset="0.6547817"
         style="stop-opacity:1;stop-color:#1a1919" /><stop
         id="stop476"
         offset="0.714279"
         style="stop-opacity:1;stop-color:#1a1919" /><stop
         id="stop478"
         offset="0.7787164"
         style="stop-opacity:1;stop-color:#ffffff" /><stop
         id="stop480"
         offset="0.841385"
         style="stop-opacity:1;stop-color:#ffffff" /><stop
         id="stop482"
         offset="0.87240091"
         style="stop-opacity:1;stop-color:#ffffff" /><stop
         id="stop484"
         offset="0.910339"
         style="stop-opacity:1;stop-color:#2f2e2e" /><stop
         id="stop486"
         offset="0.945053"
         style="stop-opacity:1;stop-color:#2f2e2e" /><stop
         id="stop488"
         offset="1"
         style="stop-opacity:1;stop-color:#5d5a5a" /></linearGradient><clipPath
       id="clipPath500"
       clipPathUnits="userSpaceOnUse"><path
         id="path498"
         d="M 0,841.89 H 1190.55 V 0 H 0 Z" /></clipPath><clipPath
       id="clipPath508"
       clipPathUnits="userSpaceOnUse"><path
         id="path506"
         d="m 509.582,439.005 h 93.341 V 307.724 h -93.341 z" /></clipPath><clipPath
       id="clipPath512"
       clipPathUnits="userSpaceOnUse"><path
         id="path510"
         d="m 510.215,307.724 c -0.308,6.208 1.975,11.903 5.933,17.584 5.314,7.63 13.497,15.422 23.557,25.848 17.609,18.26 60.523,60.272 62.058,61.816 0.976,0.959 2.137,2.307 -0.243,4.607 -4.258,4.088 -6.501,6.708 -13.197,13.428 -4.088,4.092 -6.931,6.579 -6.785,7.997 0.016,0.202 -47.935,-53.719 -63.651,-93.592 -6.452,-14.222 -8.305,-22.323 -8.305,-29.4 0,-6.144 0.633,-8.288 0.633,-8.288" /></clipPath><linearGradient
       id="linearGradient530"
       spreadMethod="pad"
       gradientTransform="matrix(37.907394,-22.329163,-22.329163,-37.907394,530.02734,382.7002)"
       gradientUnits="userSpaceOnUse"
       y2="0"
       x2="1"
       y1="0"
       x1="0"><stop
         id="stop514"
         offset="0"
         style="stop-opacity:1;stop-color:#ffffff" /><stop
         id="stop516"
         offset="0.199997"
         style="stop-opacity:1;stop-color:#ffffff" /><stop
         id="stop518"
         offset="0.41919978"
         style="stop-opacity:1;stop-color:#ffffff" /><stop
         id="stop520"
         offset="0.520691"
         style="stop-opacity:1;stop-color:#afadad" /><stop
         id="stop522"
         offset="0.52670281"
         style="stop-opacity:1;stop-color:#afadad" /><stop
         id="stop524"
         offset="0.835159"
         style="stop-opacity:1;stop-color:#2d2d2c" /><stop
         id="stop526"
         offset="0.86316956"
         style="stop-opacity:1;stop-color:#2d2d2c" /><stop
         id="stop528"
         offset="1"
         style="stop-opacity:1;stop-color:#1a1919" /></linearGradient><clipPath
       id="clipPath552"
       clipPathUnits="userSpaceOnUse"><path
         id="path550"
         d="M 358.128,659.913 H 761.543 V 326.397 H 358.128 Z" /></clipPath><clipPath
       id="clipPath556"
       clipPathUnits="userSpaceOnUse"><path
         id="path554"
         d="m 358.128,659.853 c 6.696,0.053 12.913,0.236 18.698,-0.483 11.385,-1.415 25.329,-4.429 34.13,-8.093 4.575,-1.915 15.415,-7.806 28.075,-14.956 21.924,-12.401 49.309,-28.544 59.036,-34.001 33.861,-19.262 61.848,-37.408 87.314,-56.305 9.199,-6.805 18.016,-13.83 26.694,-20.867 50.334,-40.65 91.662,-85.656 146.879,-182.11 2.129,-3.736 2.778,-6.704 2.543,-9.962 -0.195,-2.876 -2.673,-5.786 -6.72,-6.679 z" /></clipPath><linearGradient
       id="linearGradient576"
       spreadMethod="pad"
       gradientTransform="matrix(39.871262,47.735596,47.735596,-39.871262,551.29395,485.354)"
       gradientUnits="userSpaceOnUse"
       y2="0"
       x2="1"
       y1="0"
       x1="0"><stop
         id="stop558"
         offset="0"
         style="stop-opacity:1;stop-color:#ffffff" /><stop
         id="stop560"
         offset="0.0219727"
         style="stop-opacity:1;stop-color:#ffffff" /><stop
         id="stop562"
         offset="0.1496645"
         style="stop-opacity:1;stop-color:#ffffff" /><stop
         id="stop564"
         offset="0.208786"
         style="stop-opacity:1;stop-color:#ffffff" /><stop
         id="stop566"
         offset="0.29510009"
         style="stop-opacity:1;stop-color:#ffffff" /><stop
         id="stop568"
         offset="0.5"
         style="stop-opacity:1;stop-color:#c4c2c2" /><stop
         id="stop570"
         offset="0.87470574"
         style="stop-opacity:1;stop-color:#726f6f" /><stop
         id="stop572"
         offset="0.945053"
         style="stop-opacity:1;stop-color:#726f6f" /><stop
         id="stop574"
         offset="1"
         style="stop-opacity:1;stop-color:#6c6969" /></linearGradient><clipPath
       id="clipPath598"
       clipPathUnits="userSpaceOnUse"><path
         id="path596"
         d="m 638.103,753.242 c 1.056,-0.634 2.04,-1.268 2.812,-2.076 v 0 c 2.68,-2.495 3.259,-4.966 3.341,-5.498 v 0 c 1.307,-6.504 4.915,-15.245 13.179,-24.683 v 0 c 7.135,-8.207 21.851,-20.379 24.931,-22.522 v 0 c 1.942,-1.319 3.869,-2.652 5.526,-4.488 v 0 c 0.943,4.94 2.487,10.372 4.688,15.687 v 0 c -0.365,-0.569 -0.7,-1.329 -1.373,-2.182 v 0 c -0.748,-1.011 -2.225,-2.316 -4.413,-2.426 v 0 h -0.072 -0.139 c -1.909,0.028 -3.268,0.829 -4.404,1.618 v 0 c -7.971,5.927 -30.238,23.259 -33.446,37.972 v 0 c -2.007,6.879 0.519,3.742 -6.64,7.366 v 0 c -1.991,0.777 -3.933,1.561 -5.908,2.296 v 0 c 0.691,-0.37 1.316,-0.719 1.918,-1.064" /></clipPath><linearGradient
       id="linearGradient618"
       spreadMethod="pad"
       gradientTransform="matrix(51.938217,-53.132278,-53.132278,-51.938217,639.30078,751.76416)"
       gradientUnits="userSpaceOnUse"
       y2="0"
       x2="1"
       y1="0"
       x1="0"><stop
         id="stop604"
         offset="0"
         style="stop-opacity:1;stop-color:#000000" /><stop
         id="stop606"
         offset="0.12405758"
         style="stop-opacity:1;stop-color:#000000" /><stop
         id="stop608"
         offset="0.179306"
         style="stop-opacity:1;stop-color:#e6e5e5" /><stop
         id="stop610"
         offset="0.3724864"
         style="stop-opacity:1;stop-color:#242424" /><stop
         id="stop612"
         offset="0.579315"
         style="stop-opacity:1;stop-color:#242424" /><stop
         id="stop614"
         offset="0.71275281"
         style="stop-opacity:1;stop-color:#242424" /><stop
         id="stop616"
         offset="1"
         style="stop-opacity:1;stop-color:#000000" /></linearGradient><clipPath
       id="clipPath628"
       clipPathUnits="userSpaceOnUse"><path
         id="path626"
         d="m 684.414,592.309 c -10.499,-2.881 -36.324,-8.145 -46.278,-11.257 v 0 c -7.427,-2.683 -8.37,-5.039 -8.605,-8.748 v 0 -0.045 c -0.017,-3.435 1.56,-8.785 4.891,-13.383 v 0 c 3.869,-5.511 22.558,-26.757 43.409,-52.955 v 0 c 2.397,-2.929 3.398,-4.05 5.371,-6.069 v 0 c -0.754,0.987 -30.18,38.232 -39.199,48.52 v 0 c -2.577,3.011 -5.518,7.067 -5.565,12.377 v 0 c -0.019,5.301 4.045,12.85 12.422,15.742 v 0 c 11.191,4.092 31.554,10.687 36.186,13.202 v 0 c 4.519,2.584 5.851,3.721 6.517,6.809 v 0 c -2.323,-1.892 -5.33,-3.125 -9.149,-4.193" /></clipPath><linearGradient
       id="linearGradient648"
       spreadMethod="pad"
       gradientTransform="matrix(59.104584,38.806,38.806,-59.104584,645.52441,530.99316)"
       gradientUnits="userSpaceOnUse"
       y2="0"
       x2="1"
       y1="0"
       x1="0"><stop
         id="stop634"
         offset="0"
         style="stop-opacity:1;stop-color:#000000" /><stop
         id="stop636"
         offset="0.12405758"
         style="stop-opacity:1;stop-color:#000000" /><stop
         id="stop638"
         offset="0.179306"
         style="stop-opacity:1;stop-color:#e6e5e5" /><stop
         id="stop640"
         offset="0.3724864"
         style="stop-opacity:1;stop-color:#242424" /><stop
         id="stop642"
         offset="0.579315"
         style="stop-opacity:1;stop-color:#242424" /><stop
         id="stop644"
         offset="0.71275281"
         style="stop-opacity:1;stop-color:#242424" /><stop
         id="stop646"
         offset="1"
         style="stop-opacity:1;stop-color:#000000" /></linearGradient><clipPath
       id="clipPath658"
       clipPathUnits="userSpaceOnUse"><path
         id="path656"
         d="m 730.138,736.218 c -19.892,-0.455 -33.282,-17.35 -37.183,-33.135 v 0 c 4.037,14.103 16.877,30.782 37.241,30.782 v 0 c 25.939,0 36.754,-9.792 40.37,-24.391 v 0 c -4.508,20.095 -21.687,26.763 -38.837,26.763 v 0 c -0.531,0 -1.06,-0.006 -1.591,-0.019" /></clipPath><linearGradient
       id="linearGradient676"
       spreadMethod="pad"
       gradientTransform="matrix(77.611328,0,0,-77.611328,692.95508,719.66016)"
       gradientUnits="userSpaceOnUse"
       y2="0"
       x2="1"
       y1="0"
       x1="0"><stop
         id="stop664"
         offset="0"
         style="stop-opacity:1;stop-color:#3f3e3d" /><stop
         id="stop666"
         offset="0.285721"
         style="stop-opacity:1;stop-color:#b5b3b3" /><stop
         id="stop668"
         offset="0.42464747"
         style="stop-opacity:1;stop-color:#3f3e3d" /><stop
         id="stop670"
         offset="0.532974"
         style="stop-opacity:1;stop-color:#3f3e3d" /><stop
         id="stop672"
         offset="0.75824"
         style="stop-opacity:1;stop-color:#1a1919" /><stop
         id="stop674"
         offset="1"
         style="stop-opacity:1;stop-color:#000000" /></linearGradient><clipPath
       id="clipPath686"
       clipPathUnits="userSpaceOnUse"><path
         id="path684"
         d="M 542.98,349.018 C 522.908,328.477 513.775,322.09 514.197,309.307 v 0 c 0.236,-7.541 0.822,-26.093 0.861,-28.855 v 0 c 0,-1.885 0.179,-3.672 -3.007,-5.337 v 0 c -1.56,-0.847 -4.249,-0.838 -5.622,-0.838 v 0 c -5.461,0 -58.411,5.151 -76.97,5.151 v 0 c -18.593,0 -34.519,-2.063 -44.092,-4.469 v 0 c -1.56,-0.365 -5.59,-0.113 -7.216,2.292 v 0 c -0.829,1.252 -1.129,2.519 -1.203,3.616 v 0 c -0.406,-3.616 -0.747,-7.841 -0.747,-9.686 v 0 c 3.347,0.657 11.221,1.747 21.388,2.511 v 0 c 13.009,1.023 27.734,0.844 37.541,0.844 v 0 c 9.834,0 82.675,-3.786 82.951,-3.786 v 0 c -0.479,5.607 -1.202,18.916 -1.405,27.255 v 0 c -0.057,2.138 -0.057,2.113 -0.244,8.061 v 0 c 0,6.517 1.243,14.123 7.647,20.917 v 0 c 3.445,3.729 16.861,18.64 31.081,34.437 v 0 c -4.655,-4.69 -8.882,-9.004 -12.18,-12.402" /></clipPath><linearGradient
       id="linearGradient706"
       spreadMethod="pad"
       gradientTransform="matrix(178.95947,0,0,-178.95947,376.20068,316.08496)"
       gradientUnits="userSpaceOnUse"
       y2="0"
       x2="1"
       y1="0"
       x1="0"><stop
         id="stop692"
         offset="0"
         style="stop-opacity:1;stop-color:#000000" /><stop
         id="stop694"
         offset="0.12405758"
         style="stop-opacity:1;stop-color:#000000" /><stop
         id="stop696"
         offset="0.179306"
         style="stop-opacity:1;stop-color:#757272" /><stop
         id="stop698"
         offset="0.3724864"
         style="stop-opacity:1;stop-color:#242424" /><stop
         id="stop700"
         offset="0.579315"
         style="stop-opacity:1;stop-color:#242424" /><stop
         id="stop702"
         offset="0.71275281"
         style="stop-opacity:1;stop-color:#242424" /><stop
         id="stop704"
         offset="1"
         style="stop-opacity:1;stop-color:#000000" /></linearGradient><clipPath
       id="clipPath716"
       clipPathUnits="userSpaceOnUse"><path
         id="path714"
         d="m 603.9,409.868 c 2.049,-0.3 3.845,-1.463 5.445,-2.926 v 0 c 3.762,-3.494 52.852,-39.012 62.636,-46.058 v 0 c 4.136,-2.95 7.997,-5.03 11.961,-6.404 v 0 c -3.34,2.341 -8.256,6.095 -14.708,11.027 v 0 c -9.385,7.258 -21.38,16.716 -33.43,26.272 v 0 c -10.182,8.094 -20.398,16.251 -29.084,23.266 v 0 c -0.153,-3.073 -2.065,-4.707 -2.82,-5.177" /></clipPath><linearGradient
       id="linearGradient736"
       spreadMethod="pad"
       gradientTransform="matrix(80.041992,0,0,-80.041992,603.90039,384.7627)"
       gradientUnits="userSpaceOnUse"
       y2="0"
       x2="1"
       y1="0"
       x1="0"><stop
         id="stop722"
         offset="0"
         style="stop-opacity:1;stop-color:#000000" /><stop
         id="stop724"
         offset="0.12405758"
         style="stop-opacity:1;stop-color:#000000" /><stop
         id="stop726"
         offset="0.179306"
         style="stop-opacity:1;stop-color:#757272" /><stop
         id="stop728"
         offset="0.3724864"
         style="stop-opacity:1;stop-color:#242424" /><stop
         id="stop730"
         offset="0.579315"
         style="stop-opacity:1;stop-color:#242424" /><stop
         id="stop732"
         offset="0.71275281"
         style="stop-opacity:1;stop-color:#242424" /><stop
         id="stop734"
         offset="1"
         style="stop-opacity:1;stop-color:#000000" /></linearGradient><clipPath
       id="clipPath746"
       clipPathUnits="userSpaceOnUse"><path
         id="path744"
         d="m 721.655,460.876 c -0.52,-1.269 -1.162,-3.003 -1.162,-5.466 v 0 c 0,-3.051 1.007,-7.277 4.908,-12.94 v 0 c 2.341,-3.316 4.624,-6.583 6.802,-9.744 v 0 c 34.12,-50.218 57.891,-98.795 66.884,-121.46 v 0 c 1.96,-5.494 1.578,-8.191 -0.209,-10.661 v 0 c 0,0 -17.757,-18.171 -19.902,-21.566 v 0 c -0.934,-1.358 -1.609,-2.52 -2.837,-3.56 v 0 c -1.193,-1.114 -4.322,-1.82 -7.313,-1.568 v 0 c -26.238,2.479 -54.728,3.502 -69.005,3.502 v 0 c -18.568,0 -29.416,-1.787 -35.585,-1.951 v 0 c -3.34,-0.113 -5.687,0.683 -6.095,1.235 v 0 c -0.024,0.083 -0.073,0.18 -0.162,0.245 v 0 c -0.268,-2.601 -0.429,-4.568 -0.487,-5.436 v 0 c 11.254,2.031 26.402,2.899 43.246,2.899 v 0 c 5.347,0 10.833,-0.098 16.481,-0.242 v 0 c 27.708,-0.855 59.88,-3.413 59.986,-3.413 v 0 c 0.058,0.04 15.439,19.624 24.962,27.514 v 0 c 1.675,1.35 2.341,1.252 2.341,2.543 v 0 c 0,0.919 -0.52,2.594 -1.316,4.86 v 0 c -9.914,28.385 -47.691,98.414 -77.076,137.363 v 0 c -2.779,3.721 -4.672,8.708 -4.672,12.164 v 0 c 0,4.495 2.356,7.786 4.754,9.646 v 0 c 2.065,1.67 7.013,5.945 13.561,12.426 v 0 c -10.141,-7.599 -17.243,-13.662 -18.104,-16.39" /></clipPath><linearGradient
       id="linearGradient766"
       spreadMethod="pad"
       gradientTransform="matrix(147.01562,0,0,-147.01562,657.49219,374.00781)"
       gradientUnits="userSpaceOnUse"
       y2="0"
       x2="1"
       y1="0"
       x1="0"><stop
         id="stop752"
         offset="0"
         style="stop-opacity:1;stop-color:#000000" /><stop
         id="stop754"
         offset="0.12405758"
         style="stop-opacity:1;stop-color:#000000" /><stop
         id="stop756"
         offset="0.179306"
         style="stop-opacity:1;stop-color:#757272" /><stop
         id="stop758"
         offset="0.3724864"
         style="stop-opacity:1;stop-color:#242424" /><stop
         id="stop760"
         offset="0.579315"
         style="stop-opacity:1;stop-color:#242424" /><stop
         id="stop762"
         offset="0.71275281"
         style="stop-opacity:1;stop-color:#242424" /><stop
         id="stop764"
         offset="1"
         style="stop-opacity:1;stop-color:#000000" /></linearGradient><clipPath
       id="clipPath776"
       clipPathUnits="userSpaceOnUse"><path
         id="path774"
         d="m 387.837,530.767 c -11.165,-0.808 -16.61,-2.169 -17.699,-2.43 v 0 c -1.096,-0.256 -1.738,-0.186 -1.795,-0.186 v 0 c 0.283,-0.435 0.69,-1.288 0.885,-1.618 v 0 c 0.292,0.106 0.739,0.285 1.56,0.52 v 0 c 6.721,1.914 21.714,2.825 40.435,2.872 v 0 c 17.854,0 37.332,-0.129 47.408,-0.593 v 0 c 9.044,-0.451 21.794,-1.662 31.985,-7.216 v 0 c 9.458,-5.289 29.984,-19.535 30.967,-18.652 v 0 c -8.328,5.85 -17.153,11.819 -25.133,16.706 v 0 c -10.531,6.598 -20.543,11.154 -23.533,11.077 v 0 c -32.033,0.487 -32.033,0.487 -50.885,0.487 v 0 c -14.709,0 -28.653,-0.553 -34.195,-0.967" /></clipPath><linearGradient
       id="linearGradient792"
       spreadMethod="pad"
       gradientTransform="matrix(153.24023,0,0,-153.24023,368.34326,517.5791)"
       gradientUnits="userSpaceOnUse"
       y2="0"
       x2="1"
       y1="0"
       x1="0"><stop
         id="stop782"
         offset="0"
         style="stop-opacity:1;stop-color:#52504f" /><stop
         id="stop784"
         offset="0.12405758"
         style="stop-opacity:1;stop-color:#52504f" /><stop
         id="stop786"
         offset="0.179306"
         style="stop-opacity:1;stop-color:#b5b3b3" /><stop
         id="stop788"
         offset="0.57565207"
         style="stop-opacity:1;stop-color:#000000" /><stop
         id="stop790"
         offset="1"
         style="stop-opacity:1;stop-color:#000000" /></linearGradient><clipPath
       id="clipPath802"
       clipPathUnits="userSpaceOnUse"><path
         id="path800"
         d="m 373.584,622.221 c 0.488,-0.037 1.211,-0.016 2.107,0.004 v 0 c 3.074,0.069 8.18,0.139 12.805,-2.084 v 0 c 8.149,-4.022 28.871,-19.341 32.04,-22.655 v 0 c 3.933,-4.519 7.867,-4.072 4.388,-1.049 v 0 c -12.148,11.284 -30.537,24.289 -39.16,26.073 v 0 c -3.046,0.719 -7.328,1.036 -10.807,1.199 v 0 c -2.657,0.153 -2.479,3.246 -3.226,3.834 v 0 c 0.065,-0.548 0.235,-5.207 1.853,-5.322" /></clipPath><linearGradient
       id="linearGradient818"
       spreadMethod="pad"
       gradientTransform="matrix(54.535644,0,0,-54.535644,371.73096,610.83594)"
       gradientUnits="userSpaceOnUse"
       y2="0"
       x2="1"
       y1="0"
       x1="0"><stop
         id="stop808"
         offset="0"
         style="stop-opacity:1;stop-color:#242424" /><stop
         id="stop810"
         offset="0.12405758"
         style="stop-opacity:1;stop-color:#242424" /><stop
         id="stop812"
         offset="0.179306"
         style="stop-opacity:1;stop-color:#b5b3b3" /><stop
         id="stop814"
         offset="0.57565207"
         style="stop-opacity:1;stop-color:#000000" /><stop
         id="stop816"
         offset="1"
         style="stop-opacity:1;stop-color:#000000" /></linearGradient><clipPath
       id="clipPath828"
       clipPathUnits="userSpaceOnUse"><path
         id="path826"
         d="m 354.52,537.182 c -5.729,-0.137 -20.225,-7.341 -22.443,-8.788 v 0 c -3.382,-1.885 -4.828,-1.917 -6.941,0.375 v 0 c 0.959,-2.329 2.6,-3.755 4.088,-3.252 v 0 c 1.47,0.516 18.877,9.569 26.572,9.569 v 0 c 2.527,0 3.259,-0.06 5.234,-0.873 v 0 c -1.192,2.028 -2.503,2.973 -6.098,2.973 v 0 c -0.134,0 -0.271,-0.001 -0.412,-0.004" /></clipPath><linearGradient
       id="linearGradient844"
       spreadMethod="pad"
       gradientTransform="matrix(35.893555,0,0,-35.893555,325.13623,531.30127)"
       gradientUnits="userSpaceOnUse"
       y2="0"
       x2="1"
       y1="0"
       x1="0"><stop
         id="stop834"
         offset="0"
         style="stop-opacity:1;stop-color:#52504f" /><stop
         id="stop836"
         offset="0.12405758"
         style="stop-opacity:1;stop-color:#52504f" /><stop
         id="stop838"
         offset="0.179306"
         style="stop-opacity:1;stop-color:#999696" /><stop
         id="stop840"
         offset="0.57565207"
         style="stop-opacity:1;stop-color:#242424" /><stop
         id="stop842"
         offset="1"
         style="stop-opacity:1;stop-color:#242424" /></linearGradient><clipPath
       id="clipPath854"
       clipPathUnits="userSpaceOnUse"><path
         id="path852"
         d="m 524.412,755.707 c -3.958,-0.625 -16.57,-4.037 -17.902,-4.484 v 0 c -1.373,-0.431 -2.089,-0.882 -2.974,-2.329 v 0 c -0.894,-1.433 -1.3,-4.575 -0.902,-5.785 v 0 c 0.358,-1.252 1.617,-2.19 3.567,-1.358 v 0 c 2.691,1.097 18.323,6.846 21.071,7.72 v 0 c 1.178,0.395 1.674,0.999 1.926,1.629 v 0 c 0.398,1.017 0.504,2.357 0.398,3.434 v 0 c -0.151,1.223 -0.929,1.577 -2.053,1.577 v 0 c -0.877,0 -1.966,-0.216 -3.131,-0.404" /></clipPath><linearGradient
       id="linearGradient868"
       spreadMethod="pad"
       gradientTransform="matrix(3.9412842,-8.6707001,-8.6707001,-3.9412842,513.8916,753.81445)"
       gradientUnits="userSpaceOnUse"
       y2="0"
       x2="1"
       y1="0"
       x1="0"><stop
         id="stop860"
         offset="0"
         style="stop-opacity:1;stop-color:#ffffff" /><stop
         id="stop862"
         offset="0.115387"
         style="stop-opacity:1;stop-color:#dcdbdb" /><stop
         id="stop864"
         offset="0.906586"
         style="stop-opacity:1;stop-color:#373534" /><stop
         id="stop866"
         offset="1"
         style="stop-opacity:1;stop-color:#373534" /></linearGradient><clipPath
       id="clipPath878"
       clipPathUnits="userSpaceOnUse"><path
         id="path876"
         d="M 0,841.89 H 1190.55 V 0 H 0 Z" /></clipPath><clipPath
       id="clipPath890"
       clipPathUnits="userSpaceOnUse"><path
         id="path888"
         d="M 541.005,737.843 C 508.63,736.989 480.393,723.272 464.548,716.8 v 0 c 11.302,3.864 38.744,15.115 69.363,16.956 v 0 c 16.821,1.019 23.566,-0.412 29.725,-7.33 v 0 c 8.939,-9.853 29.782,-37.847 37.201,-52.039 v 0 c 2.934,-5.632 4.242,-10.659 3.818,-14.98 v 0 c -0.584,-6.513 -2.908,-11.304 -4.753,-15.607 v 0 c -3.225,-7.406 -15.139,-31.618 -17.211,-35.141 v 0 c -8.686,-15.033 -16.992,-14.505 -25.848,-12.457 v 0 c 0.471,-0.255 4.518,-2.17 8.231,-3.681 v 0 c 10.313,-4.223 16.845,1.642 22.72,12.698 v 0 c 1.911,3.461 14.563,30.207 17.586,37.915 v 0 c 1.958,4.84 4.167,9.638 4.167,15.792 v 0 c 0,4.028 -1.104,10.224 -3.86,15.949 v 0 c -6.962,14.682 -28.992,42.575 -37.801,53.115 v 0 c -6.845,8.074 -13.082,9.893 -23.901,9.893 v 0 c -0.956,0 -1.948,-0.014 -2.98,-0.04" /></clipPath><linearGradient
       id="linearGradient906"
       spreadMethod="pad"
       gradientTransform="matrix(145.00049,0,0,-145.00049,464.54736,664.51465)"
       gradientUnits="userSpaceOnUse"
       y2="0"
       x2="1"
       y1="0"
       x1="0"><stop
         id="stop896"
         offset="0"
         style="stop-opacity:1;stop-color:#ffffff" /><stop
         id="stop898"
         offset="0.686813"
         style="stop-opacity:1;stop-color:#ffffff" /><stop
         id="stop900"
         offset="0.80434478"
         style="stop-opacity:1;stop-color:#ffffff" /><stop
         id="stop902"
         offset="0.979645"
         style="stop-opacity:1;stop-color:#000000" /><stop
         id="stop904"
         offset="1"
         style="stop-opacity:1;stop-color:#000000" /></linearGradient><clipPath
       id="clipPath916"
       clipPathUnits="userSpaceOnUse"><path
         id="path914"
         d="M 502.813,433.993 C 491.33,415.702 474.754,388.4 472.161,382.401 v 0 c -2.397,-5.541 -3.177,-10.531 -3.258,-17.048 v 0 c 0,-0.065 0.943,-29.513 0.943,-29.693 v 0 c 0,-3.64 -0.537,-6.637 -2.488,-8.946 v 0 c -1.99,-2.268 -4.972,-3.405 -9.133,-3.99 v 0 c -6.817,-1.008 -39.005,-5.965 -47.829,-7.761 v 0 c -8.582,-1.853 -12.142,-5.786 -14.05,-11.482 v 0 c -1.39,-4.096 -2.983,-11.067 -2.967,-14.123 v 0 c 0,0 -0.097,-1.675 0,-1.675 v 0 c -0.244,-3.266 0.943,-3.072 0.943,-3.072 v 0 c 0,0 37.242,2.853 59.417,1.529 v 0 c 22.176,-1.3 52.771,-4.193 52.771,-4.193 v 0 c 0,0 -32.196,6.029 -54.112,7.403 v 0 c -10.916,0.643 -23.602,0.377 -33.617,0.111 v 0 c -10.086,-0.268 -17.463,-0.537 -17.601,0.125 v 0 c -0.163,0.935 -0.732,2.298 -0.504,4.997 v 0 c 0.366,1.731 0.813,3.729 1.415,5.81 v 0 c 1.429,5.444 3.965,10.247 12.473,12.221 v 0 c 8.126,2.065 39.386,7.232 45.327,8.688 v 0 c 5.859,1.479 9.653,3.665 10.474,8.442 v 0 c 0.212,1.462 0.406,4.763 0.391,7.802 v 0 c 0,6.281 -1.105,22.957 -1.073,24.005 v 0 c 0.211,10.254 0.65,15.699 7.354,26.767 v 0 c 10.393,17.291 49.512,76.757 68.981,97.403 v 0 c 1.22,1.3 1.789,2.412 3.959,2.067 v 0 c -0.432,0.086 -0.854,0.215 -1.261,0.431 v 0 c -0.357,0.17 -1.885,1.317 -3.949,2.836 v 0 c -4.875,-5.474 -26.71,-32.764 -41.954,-57.062" /></clipPath><linearGradient
       id="linearGradient940"
       spreadMethod="pad"
       gradientTransform="matrix(53.756042,190.1129,190.1129,-53.756042,455.02783,305.56445)"
       gradientUnits="userSpaceOnUse"
       y2="0"
       x2="1"
       y1="0"
       x1="0"><stop
         id="stop922"
         offset="0"
         style="stop-opacity:1;stop-color:#d5d4d4" /><stop
         id="stop924"
         offset="0.0659332"
         style="stop-opacity:1;stop-color:#373534" /><stop
         id="stop926"
         offset="0.30955847"
         style="stop-opacity:1;stop-color:#676564" /><stop
         id="stop928"
         offset="0.35173"
         style="stop-opacity:1;stop-color:#676564" /><stop
         id="stop930"
         offset="0.56711744"
         style="stop-opacity:1;stop-color:#918e8e" /><stop
         id="stop932"
         offset="0.604401"
         style="stop-opacity:1;stop-color:#918e8e" /><stop
         id="stop934"
         offset="0.89215771"
         style="stop-opacity:1;stop-color:#494747" /><stop
         id="stop936"
         offset="0.958618"
         style="stop-opacity:1;stop-color:#494747" /><stop
         id="stop938"
         offset="1"
         style="stop-opacity:1;stop-color:#8c8889" /></linearGradient><clipPath
       id="clipPath950"
       clipPathUnits="userSpaceOnUse"><path
         id="path948"
         d="M 0,841.89 H 1190.55 V 0 H 0 Z" /></clipPath></defs><g
     transform="matrix(1.3333333,0,0,-1.3333333,0,1122.52)"
     id="g10"><g
       id="g12"><g
         clip-path="url(#clipPath18)"
         id="g14"><g
           transform="translate(701.4619,500.5742)"
           id="g20"><path
             id="path22"
             style="fill:#000000;fill-opacity:1;fill-rule:nonzero;stroke:none"
             d="m 0,0 c -7.021,-2.299 -11.588,-0.317 -14.992,2.947 -3.429,3.261 -31.343,36.827 -40.289,47.094 -4.519,5.18 -7.914,16.991 5.68,22.037 11.157,4.043 31.18,10.488 36.737,13.396 5.542,2.942 8.468,5.956 9.004,11.641 0.431,5.733 0.487,12.145 0.511,14.282 0.049,2.166 2.837,3.88 4.259,1.347 C 1.885,110.962 6.906,101.189 13.018,89.89 22.127,72.932 33.658,51.719 37.428,42.609 40.956,33.882 39.224,27.251 33.813,20.564 26.499,11.51 5.137,1.683 0,0 m 106.191,-194.744 c -9.491,28.399 -47.878,99.673 -78.059,139.785 -6.532,8.742 -4.096,13.236 -0.594,16.056 3.471,2.831 14.709,12.526 27.979,27.731 13.424,15.346 16.658,32.693 7.176,57.8 -9.442,24.858 -40.648,83.979 -47.197,103.546 -7.509,22.59 -8.264,32.631 -3.755,44.941 5.356,14.477 13.124,15.093 19.009,14.996 3.145,-0.061 5.483,-3.38 5.508,-4.896 0.171,-6.403 0.487,-14.277 6.696,-30.774 9.955,-26.265 35.487,-43.42 43.531,-46.887 5.616,-2.421 6.608,1.911 6.12,4.01 -0.504,2.082 -8.817,34.638 -15.042,59.106 -6.524,25.649 -9.8,31.212 -15.601,36.637 -9.256,8.767 -23.282,13.472 -35.161,13.017 -26.508,-1.032 -38.218,-26.641 -39.665,-29.018 -1.251,-2.121 -1.763,-3.613 -4.46,-1.751 -7.591,5.302 -29.694,23.785 -31.734,35.36 -1.202,6.831 -2.396,7.79 -9.238,10.446 -26.605,10.365 -49.626,19.498 -75.125,24.001 -10.239,1.803 -10.775,2.677 -22.705,0.463 -20.266,-3.783 -32.674,-8.451 -47.911,-16.435 -8.37,-4.449 -9.361,-7.419 -10.986,-9.544 -1.269,-1.65 -2.633,-3.629 -5.656,-4.632 -5.062,-1.633 -23.858,-8.642 -30.302,-12.376 -4.015,-2.357 -6.216,-4.811 -4.152,-9.357 3.607,-8.017 14.424,-24.715 19.145,-28.917 2.86,-2.535 10.059,-4.283 11.759,-4.648 1.697,-0.423 2.9,-0.917 3.55,0.365 0.699,1.391 0.959,3.443 4.315,5.794 5.046,3.535 14.44,5.986 19.437,6.44 3.828,0.318 6.152,0.443 8.127,-0.979 1.958,-1.446 6.476,-6.261 8.052,-11.116 1.568,-4.852 0.586,-6.676 -2.121,-7.818 -2.73,-1.129 -10.864,-2.985 -20.315,-3.749 -9.418,-0.76 -12.083,1.849 -12.75,2.437 -0.504,0.529 -1.746,1.324 -2.697,0.057 -1.593,-2.198 -3.966,-3.623 -7.639,-5.456 -2.088,-1.016 -3.201,-3.234 -1.235,-6.704 6.013,-10.362 13.911,-22.005 21.249,-24.22 5.811,-1.811 8.947,0.101 15.497,4.782 5.884,4.234 9.702,4.213 11.311,3.023 1.756,-1.325 5.283,-4.315 4.389,-7.309 -1.56,-5.205 -12.051,-17.613 -14.074,-20.173 -1.887,-2.422 -3.674,-3.706 -7.07,-2.089 -4.957,2.374 -80.27,41.443 -90.322,45.364 -10.961,4.214 -18.161,5.241 -28.961,5.733 -8.726,0.387 -20.371,-0.459 -27.66,-1.78 -5.323,-0.978 -8.346,-3.494 -13.303,-8.073 -6.818,-6.302 -14.026,-14.371 -14.692,-21.082 -0.496,-4.835 4.892,-14.706 5.461,-15.391 0.601,-0.74 1.576,-2.11 4.502,-1.784 2.973,0.337 10.433,4.205 19.331,2.664 8.053,-1.389 8.85,-7.719 9.289,-12.575 0.048,-0.84 1.064,-2.722 3.348,-2.677 3.209,0.037 8.239,-0.069 14.025,-2.844 7.143,-3.397 21.29,-14.341 23.468,-16.771 1.756,-1.976 1.65,-3.767 -1.723,-4.095 -17.958,-1.586 -45.278,-6.933 -57.922,-11.08 -8.971,-2.93 -19.559,-6.97 -23.306,-13.47 -4.241,-7.35 -9.588,-19.177 -11.124,-27.625 -1.536,-8.393 7.443,-18.812 9.857,-21.127 1.617,-1.576 2.713,-2.551 5.582,-0.992 4.381,2.528 15.009,9.068 25.183,9.671 6.16,0.361 8.629,-5.445 10.117,-7.585 1.487,-2.098 2.917,-0.64 8.443,0.856 9.783,2.625 64.423,1.626 83.714,0.715 8.826,-0.374 21.104,-1.683 30.132,-6.668 8.971,-4.939 25.24,-20.278 25.24,-20.278 0,0 -21.608,-36.201 -33.22,-57.654 -10.759,-19.828 -18.625,-34.715 -22.493,-43.337 -3.576,-7.889 -6.484,-19.072 -5.843,-27.88 0.984,-12.887 1.309,-19.51 1.146,-25.346 -0.146,-5.135 -4.949,-5.703 -11.742,-7.361 -9.353,-2.38 -28.018,-4.097 -43.14,-7.827 -13.758,-3.428 -18.878,-6.654 -21.364,-17.292 -1.926,-8.263 -4.762,-28.838 -5.096,-38.362 -0.17,-3.852 -0.227,-5.736 4.64,-4.728 2.803,0.551 10.898,1.721 21.201,2.478 12.758,0.981 26.581,0.771 37.266,0.804 19.633,0.113 77.669,-3.282 81.562,-3.656 4.964,-0.488 5.956,0.113 5.614,3.574 -0.455,4.567 -1.283,19.153 -1.511,27.848 -0.244,8.72 -1.56,17.56 6.315,26.045 7.808,8.498 66.934,74.434 70.215,77.814 2.862,2.861 4.771,5.916 9.183,1.902 4.43,-4.079 53.104,-39.168 62.978,-46.344 9.915,-7.174 19.095,-9.613 30.358,-9.774 8.038,-0.131 10.279,-14.156 3.429,-15.465 -6.989,-1.357 -17.691,-3.544 -25.142,-5.233 -11.53,-2.69 -15.041,-6.468 -18.519,-14.22 -2.941,-6.559 -6.223,-38.77 -6.314,-41.55 -0.104,-2.007 -0.235,-4.908 2.935,-4.248 14.211,2.884 36.736,3.696 60.798,2.942 27.661,-0.846 54.509,-3.13 58.296,-3.358 4.03,-0.293 4.438,0.325 6.493,3.511 3.486,5.462 13.896,17.471 22.949,24.89 4.517,3.698 4.622,5.225 2.721,10.776" /></g></g></g><g
       id="g24"><g
         clip-path="url(#clipPath30)"
         id="g26"><g
           id="g32"><g
             id="g34"><path
               id="path52"
               style="fill:url(#linearGradient50);stroke:none"
               d="m 729.984,735.669 c -21.761,0.102 -43.816,-25.13 -39.629,-62.752 v 0 c 2.623,-23.027 6.125,-33.526 12.959,-48.409 v 0 c 3.389,-7.354 40.55,-78.11 42.264,-85.591 v 0 c 2.318,-10.711 0.253,-17.409 -7.97,-24.903 v 0 c -9.071,-8.215 -24.112,-17.543 -34.262,-21.043 v 0 c -2.395,-0.82 -4.606,-1.23 -6.606,-1.23 v 0 c -2.298,0 -8.036,0.78 -18.909,14.18 v 0 l 48.017,-64.079 c -6.126,8.191 -9.295,14.388 -8.175,19.822 v 0 c 1.09,5.338 9.832,11.175 19.892,19.1 v 0 c 10.085,7.841 21.234,17.727 26.346,31.106 v 0 c 1.495,3.807 2.137,7.759 2.137,11.893 v 0 c 0,12.774 -6.192,27.242 -13.619,42.929 v 0 c -9.597,20.352 -36.835,64.748 -45.1,95.872 v 0 c -2.04,7.637 -2.934,14.509 -2.934,20.607 v 0 c 0,17.637 7.501,28.831 16.691,32.626 v 0 c 4.405,1.779 8.346,2.389 11.637,2.389 v 0 c 5.046,0 8.54,-1.402 9.996,-2.169 v 0 c 2.575,-1.459 2.948,-4.527 2.948,-6.948 v 0 -0.529 c -0.007,-0.56 -0.089,-1.868 -0.089,-3.803 v 0 c 0,-7.264 0.984,-23.208 9.443,-38.688 v 0 c 10.661,-19.665 28.596,-30.638 35.649,-33.601 v 0 c 0.593,-0.259 -16.488,63.107 -19.561,75.06 v 0 c -3.534,13.928 -13.366,27.881 -40.864,28.161 v 0 c -0.032,0.014 -0.067,0.022 -0.109,0.022 v 0 c -0.041,0 -0.091,-0.008 -0.152,-0.022" /></g></g></g></g><g
       id="g54"><g
         clip-path="url(#clipPath60)"
         id="g56"><g
           id="g62"><g
             id="g64"><path
               id="path80"
               style="fill:url(#linearGradient78);stroke:none"
               d="m 431.173,594.885 c 4.186,-4.196 -3.111,-3.957 -25.247,-5.883 v 0 c -22.542,-1.958 -45.246,-6.505 -57.118,-10.962 v 0 c -8.687,-3.278 -13.953,-5.595 -17.423,-13.567 v 0 c 0,0 -7.216,-15.687 -8.182,-21.886 v 0 c -0.456,-2.935 -0.317,-4.626 1.21,-7.092 v 0 c 0.853,-1.306 2.934,40.904 57.411,43.678 v 0 c 48.203,2.457 60.068,7.517 50.649,16.729 v 0 z" /></g></g></g></g><g
       id="g82"><g
         clip-path="url(#clipPath88)"
         id="g84"><g
           id="g90"><g
             id="g92"><path
               id="path108"
               style="fill:url(#linearGradient106);stroke:none"
               d="m 732.47,716.256 c -2.956,0 -6.491,-0.524 -10.489,-2.182 v 0 c -7.606,-3.076 -14.57,-12.609 -14.895,-28.828 v 0 l 0.08,-3.709 c 0,0 1.041,11.036 2.999,16.232 v 0 c 4.853,14.05 13.831,16.975 20.031,16.975 v 0 c 4.153,0 6.028,-0.994 7.801,-2.851 v 0 c 1.365,-1.5 2.258,-2.874 2.446,-4.986 v 0 c 0.154,-6.277 0.406,-13.489 6.5,-29.749 v 0 c 0.359,-0.989 0.748,-1.972 1.162,-2.922 v 0 c -5.16,13.135 -5.785,25.329 -5.785,31.553 v 0 c -0.024,1.995 0.074,4.312 0.074,4.312 v 0 c 0.024,4.77 -5.201,6.155 -9.901,6.155 v 0 c -0.007,0 -0.015,0 -0.023,0" /></g></g></g></g><g
       id="g110"><g
         clip-path="url(#clipPath116)"
         id="g112"><g
           id="g118"><g
             id="g120"><path
               id="path134"
               style="fill:url(#linearGradient132);stroke:none"
               d="m 433.075,593.049 c 1.633,-4.458 -4.884,-3.409 -27.019,-5.331 v 0 c -22.542,-1.962 -45.262,-6.325 -57.143,-10.787 v 0 c -8.694,-3.275 -13.944,-5.592 -17.422,-13.567 v 0 c 0,0 -7.232,-15.702 -8.207,-21.899 v 0 c -0.455,-2.922 0.268,-4.636 1.812,-7.069 v 0 c 2.309,-3.653 3.795,-4.437 7.167,-2.509 v 0 c 2.739,1.568 14.781,8.4 22.681,8.55 v 0 c 7.199,0.158 10.368,-4.233 11.423,-7.993 v 0 c 0.643,-2.331 3.82,-1.12 4.373,-0.978 v 0 c 3.152,0.796 6.225,1.743 17.496,2.555 v 0 c 13.383,0.984 65.593,0.54 84.763,0.089 v 0 c 17.243,-0.396 85.143,-53.671 86.136,-53.92 v 0 l 3.429,6.867 c -23.062,19.072 -108.76,87.01 -129.465,107.272 v 0 z" /></g></g></g></g><g
       id="g136"><g
         clip-path="url(#clipPath142)"
         id="g138"><g
           id="g144"><g
             id="g146"><path
               id="path174"
               style="fill:url(#linearGradient172);stroke:none"
               d="m 364.499,671.836 c -4.258,-0.545 -7.15,-0.757 -11.637,-4.926 v 0 c -4.404,-4.102 -12.059,-9.677 -15.033,-15.35 v 0 c -1.136,-2.145 -1.706,-3.644 -1.43,-5.599 v 0 c 0.455,-2.75 1.747,-5.672 2.495,-6.577 v 0 c 0.821,-0.971 1.909,-1.431 4.136,-0.818 v 0 c 4.591,1.253 12.709,2.32 17.633,2.162 v 0 c 3.495,-0.052 8.533,-0.939 10.856,-3.578 v 0 c 3.089,-3.6 2.877,-6.583 2.976,-8.127 v 0 c 0.016,-0.694 0.26,-2 1.754,-2.223 v 0 c 3.087,-0.426 6.42,-0.426 9.98,-1.218 v 0 c 10.027,-2.203 23.516,-10.735 36.095,-22.322 v 0 c 24.387,-22.497 54.689,-56.173 83.74,-79.351 v 0 c 14.682,-11.703 38.801,-26.362 46.765,-34.341 v 0 c 1.478,-1.475 -1.707,-2.568 -4.113,-1.349 v 0 c -1.121,0.544 -14.805,11.299 -17.795,12.035 v 0 c -2.528,0.63 -5.185,0.003 -7.801,-3.645 v 0 C 500.334,465.124 474.104,412.274 463.409,387.228 v 0 c -2.503,-5.948 -4.656,-13.425 -4.323,-20.169 v 0 c 0.325,-6.778 1.057,-20.266 1.162,-26.612 v 0 c 0.073,-6.218 -1.455,-8.702 -8.832,-9.89 v 0 c -13.538,-2.08 -43.63,-7.493 -51.276,-9.369 v 0 c -5.786,-1.397 -10.636,-4.022 -12.855,-10.726 v 0 c -3.194,-9.711 -5.779,-24.623 -6.023,-28.263 v 0 c -0.153,-2.243 0.643,-3.794 3.243,-3.144 v 0 c 11.051,2.779 28.116,5.005 51.593,4.557 v 0 c 23.492,-0.512 65.39,-4.639 70.819,-5.133 v 0 c 1.868,-0.171 4.135,-0.204 4.111,1.973 v 0 c -0.04,2.504 -0.666,13.83 -0.83,28.311 v 0 c -0.153,14.466 12.45,25.086 29.905,43.175 v 0 c 17.511,18.153 59.71,59.766 61.294,61.213 v 0 c 1.049,1.04 2.187,2.052 0.05,4.135 v 0 c -2.958,2.829 -16.423,16.737 -17.95,18.329 v 0 c -0.781,0.845 -2.488,2.998 -1.829,3.749 v 0 c 0.65,0.765 2.258,-0.482 4.332,-2.189 v 0 c 8.149,-6.626 97.373,-78.462 103.573,-81.264 v 0 c 6.355,-2.764 10.248,-3.593 15.927,-4.584 v 0 c 4.29,-0.78 8.029,-7.11 8.655,-11.831 v 0 c 0.601,-4.713 0.324,-10.97 -6.265,-12.595 v 0 c -6.542,-1.634 -22.753,-4.632 -28.45,-6.208 v 0 c -5.744,-1.578 -9.571,-4.154 -12.026,-10.719 v 0 c -2.471,-6.607 -5.681,-24.565 -5.739,-26.084 v 0 c -0.071,-3.974 0.984,-4.283 4.023,-3.536 v 0 c 3.763,0.871 8.175,2.129 25.233,2.707 v 0 c 28.709,1.014 72.386,-2.682 78.017,-3.13 v 0 c 1.927,-0.177 3.495,1.781 4.186,2.984 v 0 c 6.078,10.498 4.354,13.188 12.53,19.818 v 0 c 4.242,3.414 6.266,4.081 3.607,10.134 v 0 c -26.669,60.717 -52.039,101.929 -93.116,154.558 v 0 c -26.368,33.755 -57.118,71.122 -67.454,83.535 v 0 l -123.978,70.917 c -7.355,3.486 -64.675,32.824 -74.55,37.737 v 0 c -9.896,4.887 -17.893,8.876 -27.985,11.157 v 0 c -7.086,1.612 -14.116,2.175 -20.667,2.175 v 0 c -6.228,0 -12.024,-0.509 -17.022,-1.11" /></g></g></g></g><g
       id="g176"><g
         clip-path="url(#clipPath182)"
         id="g178"><g
           id="g184"><g
             id="g186"><path
               id="path206"
               style="fill:url(#radialGradient204);stroke:none"
               d="m 502.724,729.977 c -17.837,-4.798 -40.648,-14.094 -41.477,-14.566 v 0 c -0.47,-0.309 -0.406,-0.756 -0.154,-1.288 v 0 c 0.212,-0.487 2.6,-4.624 2.6,-4.624 v 0 c 0,0 1.211,-2.795 4.641,-4.733 v 0 c 3.405,-1.926 6.761,-2.744 7.638,-2.933 v 0 c 0.878,-0.188 1.285,0.187 1.592,0.649 v 0 c 0.269,0.39 3.642,6.83 15.976,10.036 v 0 c 6.681,1.69 10.939,1.889 12.97,1.889 v 0 c 3.218,-0.081 8.207,-1.67 10.987,-4.363 v 0 c 4.517,-4.453 8.467,-11.824 9.15,-15.359 v 0 c 0.731,-3.417 0.162,-7.683 -3.267,-9.458 v 0 c -3.405,-1.747 -13.391,-4.112 -19.641,-4.742 v 0 c -6.493,-0.622 -12.799,-0.321 -16.528,1.841 v 0 c -0.61,0.328 -1.033,0.381 -1.61,-0.07 v 0 c -1.406,-1.173 -2.25,-2.132 -5.045,-3.782 v 0 c -0.602,-0.35 -1,-1.127 -0.391,-2.333 v 0 c 0.593,-1.193 8.419,-14.179 13.148,-17.662 v 0 c 4.714,-3.538 7.233,-1.952 12.88,1.178 v 0 c 5.664,3.126 9.484,6.957 15.351,6.762 v 0 c 5.956,-0.171 11.002,-5.221 11.912,-11.104 v 0 c 1.129,-7.134 -3.461,-11.804 -6.232,-16.204 v 0 c -2.724,-4.315 -8.33,-10.754 -11.206,-14.345 v 0 c -3.641,-4.637 -10.637,-3.236 -10.637,-3.236 v 0 c 0,0 33.015,-16.775 52.021,-26.319 v 0 c 7.525,-3.819 19.341,-0.272 27.378,14.736 v 0 c 1.87,3.487 13.733,28.619 16.708,36.112 v 0 c 2.982,7.463 7.198,15.748 0.414,29.998 v 0 c -6.81,14.22 -27.905,40.488 -36.3,50.571 v 0 c -4.403,5.263 -9.572,8.484 -20.721,9.095 v 0 c -1.443,0.079 -2.933,0.119 -4.469,0.119 v 0 c -10.171,0 -22.455,-1.767 -37.688,-5.865" /></g></g></g></g><g
       id="g208"><g
         clip-path="url(#clipPath214)"
         id="g210"><g
           id="g216"><g
             id="g218" /><g
             id="g254"><g
               style="opacity:0.85000598"
               id="g252"
               clip-path="url(#clipPath222)"><g
                 id="g250"><g
                   id="g248"
                   clip-path="url(#clipPath226)"><g
                     id="g246"><g
                       id="g244"><path
                         id="path242"
                         style="fill:url(#radialGradient240);stroke:none"
                         d="m 522.893,683.939 c -3.333,-1.622 -13.133,-3.803 -19.244,-4.369 -6.354,-0.596 -12.546,-0.304 -16.195,1.687 -0.593,0.292 -1.016,0.347 -1.568,-0.065 -1.381,-1.086 -2.211,-1.978 -4.924,-3.489 -0.61,-0.326 -1.008,-1.057 -0.415,-2.158 0.594,-1.097 7.647,-12.97 12.45,-16.375 4.802,-3.457 7.354,-1.913 13.107,1.151 5.753,3.066 9.629,6.821 15.602,6.631 z" /></g></g></g></g></g></g></g><g
           id="g256"><g
             id="g258" /><g
             id="g294"><g
               style="opacity:0.85000598"
               id="g292"
               clip-path="url(#clipPath262)"><g
                 id="g290"><g
                   id="g288"
                   clip-path="url(#clipPath266)"><g
                     id="g286"><g
                       id="g284"><path
                         id="path282"
                         style="fill:url(#radialGradient280);stroke:none"
                         d="m 501.837,728.047 c -16.95,-4.368 -38.598,-12.799 -39.387,-13.225 -0.454,-0.285 -0.381,-1.211 -0.154,-1.702 0.212,-0.439 2.462,-4.19 2.462,-4.19 0,0 1.138,-2.547 4.405,-4.298 3.242,-1.748 5.932,-2.609 6.809,-2.799 0.878,-0.188 1.284,0.187 1.592,0.649 0.269,0.39 3.642,6.83 15.977,10.036 6.68,1.69 10.938,1.889 12.969,1.889 z" /></g></g></g></g></g></g></g><g
           id="g296"><g
             id="g298" /><g
             id="g342"><g
               style="opacity:0.85000598"
               id="g340"
               clip-path="url(#clipPath302)"><g
                 id="g338"><g
                   id="g336"
                   clip-path="url(#clipPath306)"><g
                     id="g334"><g
                       id="g332"><path
                         id="path330"
                         style="fill:url(#radialGradient328);stroke:none"
                         d="m 533.578,654.307 c 1.13,-7.14 -3.454,-12.307 -6.232,-16.691 -2.747,-4.324 -8.354,-10.77 -11.198,-14.363 -3.657,-4.623 -8.988,-2.609 -8.988,-2.609 0,0 31.236,-15.889 50.243,-25.434 7.525,-3.818 18.91,-1.218 26.922,13.803 1.869,3.486 13.775,28.627 16.723,36.104 z" /></g></g></g></g></g></g></g></g></g><g
       id="g344"><g
         clip-path="url(#clipPath350)"
         id="g346"><g
           id="g352"><g
             id="g354"><path
               id="path372"
               style="fill:url(#linearGradient370);stroke:none"
               d="m 425.55,553.959 c -7.996,-0.463 -26.751,-2.183 -32.13,-3.405 v 0 c -5.21,-1.215 -13.822,-8.265 -14.968,-9.46 v 0 c -1.934,-2.043 -1.926,-3.766 -0.464,-4.354 v 0 c 1.236,-0.487 3.974,-0.073 6.176,0.113 v 0 c 6.599,0.557 24.508,1.114 44.807,1.154 v 0 c 10.527,0.027 21.978,-0.093 31.022,-0.214 v 0 c 9.387,-0.125 16.178,-0.25 16.646,-0.209 v 0 c -7.834,8.513 -14.465,18.841 -17.113,18.966 v 0 c -0.062,0.003 -0.136,0.004 -0.225,0.004 v 0 c -3.755,0 -31.535,-2.485 -33.751,-2.595" /></g></g></g></g><g
       id="g374"><g
         clip-path="url(#clipPath380)"
         id="g376"><g
           transform="translate(379.7114,536.9019)"
           id="g382"><path
             id="path384"
             style="fill:#7e7f7f;fill-opacity:1;fill-rule:nonzero;stroke:none"
             d="m 0,0 c 1.308,0 2.958,0.21 4.437,0.345 6.614,0.562 24.507,1.117 44.823,1.159 h 2.86 c 18.722,0 39.403,-0.411 43.914,-0.444 -5.64,6.241 -10.622,13.287 -13.815,16.484 -1.064,1.121 -1.991,1.715 -2.422,1.706 -0.048,0.009 -0.113,0.009 -0.194,0.009 -3.706,0 -31.521,-2.482 -33.748,-2.592 C 37.9,16.195 19.096,14.481 13.814,13.27 8.775,12.125 0.065,5.051 -0.976,3.913 -1.975,2.877 -2.389,1.939 -2.389,1.321 -2.374,0.768 -2.13,0.439 -1.593,0.204 -1.235,0.061 -0.667,0 0,0 m -1.87,-0.521 0.147,0.359 -0.147,-0.359 c -0.803,0.293 -1.316,1 -1.299,1.842 0,0.95 0.552,2.007 1.625,3.14 1.227,1.281 9.775,8.272 15.179,9.569 5.412,1.24 24.176,2.954 32.179,3.417 2.195,0.122 29.97,2.6 33.789,2.6 0.081,0 0.179,0 0.228,-0.021 0.909,-0.055 1.819,-0.795 2.965,-1.925 1.13,-1.142 2.462,-2.71 3.925,-4.551 2.99,-3.676 6.582,-8.37 10.474,-12.619 L 97.756,0.341 96.935,0.28 H 96.521 C 93.205,0.28 71.623,0.731 52.12,0.731 51.145,0.731 50.194,0.719 49.26,0.712 28.961,0.682 11.051,0.113 4.494,-0.426 3.055,-0.561 1.397,-0.785 0,-0.785 c -0.715,0.014 -1.349,0.066 -1.87,0.264" /></g></g></g><g
       id="g386"><g
         clip-path="url(#clipPath392)"
         id="g388"><g
           id="g394"><g
             id="g396"><path
               id="path424"
               style="fill:url(#linearGradient422);stroke:none"
               d="m 499.327,757.255 c -7.022,-4.248 -7.314,-9.477 -12.23,-12.319 v 0 c -4.883,-2.851 -16.131,-5.41 -27.93,-10.701 v 0 c -6.5,-2.897 -6.541,-3.377 -4.989,-7.046 v 0 c 0.617,-1.543 4.86,-9.251 7.013,-9.251 v 0 c 2.121,-0.065 4.706,1.037 7.321,2.093 v 0 c 3.479,1.373 26.752,10.377 45.247,14.334 v 0 c 20.583,4.404 42.71,4.779 50.568,-3.539 v 0 c 11.953,-12.648 32.95,-41.028 39.314,-53.336 v 0 c 6.248,-12.172 5.615,-18.083 1.453,-30.578 v 0 c -3.835,-11.538 -18.331,-41.532 -22.59,-47.744 v 0 c -4.298,-6.22 -9.482,-9.679 -21.899,-4.607 v 0 c -13.311,5.475 -62.326,30.619 -72.98,36.006 v 0 c -7.224,3.636 -37.526,18.978 -60.433,30.472 v 0 c -8.476,4.254 -15.464,7.341 -23.079,9.265 v 0 c -16.845,4.286 -34.965,2.363 -43.319,0.975 v 0 c -3.795,-0.627 -6.192,-6.753 -6.014,-9.235 v 0 c 0.16,-2.039 4.088,-1.776 8.865,-1.514 v 0 c 2.462,0.136 5.149,0.271 7.664,0.092 v 0 c 5.973,-0.411 26.409,-2.625 38.2,-7.404 v 0 c 12.442,-5.037 74.776,-38.615 90.533,-47.086 v 0 C 619.965,540.887 671.273,498.881 763.96,343.136 v 0 c 4.136,-6.955 6.118,-15.511 -0.407,-17.453 v 0 c -9.492,-2.772 -49.049,-10.297 -60.986,-14.206 v 0 c -10.06,-3.323 -11.393,-4.112 -12.88,-9.075 v 0 c -1.633,-5.681 -4.161,-16.928 -3.575,-19.188 v 0 c 0.268,-0.933 -0.543,-2.136 1.511,-2.136 v 0 c 11.126,0 51.008,-0.057 81.748,-2.958 v 0 c 3.698,-0.375 3.894,-0.284 6.226,3.258 v 0 c 2.689,4.128 13.325,16.302 20.331,21.462 v 0 c 2.926,2.186 0.965,6.239 0.471,7.565 v 0 c -8.784,22.12 -33.587,70.102 -67.584,120.005 v 0 c -33.334,49.085 -89.865,115.572 -97.668,126.615 v 0 c -7.663,10.825 -10.653,23.002 5.282,28.036 v 0 c 10.393,3.304 35.47,8.487 45.71,11.356 v 0 c 9.961,2.73 10.676,5.973 11.513,13.685 v 0 c 0.871,8.346 -1.412,48.846 -6.443,72.966 v 0 c -1.041,5.006 -4.412,9.188 -8.428,12.031 v 0 c -3.541,2.484 -17.315,14.477 -24.93,23.169 v 0 c -8.727,9.978 -12.692,19.38 -14.123,26.607 v 0 c 0,0 -0.236,1.581 -1.993,3.224 v 0 c -0.622,0.644 -1.12,0.966 -2.167,1.572 v 0 c -14.992,9.218 -67.95,23.699 -78.758,24.634 v 0 c -0.574,0.052 -1.262,0.08 -2.053,0.08 v 0 c -9.398,0 -33.41,-3.896 -55.43,-17.13" /></g></g></g></g><g
       id="g426"><g
         clip-path="url(#clipPath432)"
         id="g428"><g
           id="g434"><g
             id="g436"><path
               id="path450"
               style="fill:url(#linearGradient448);stroke:none"
               d="m 357.485,659.852 c 3.716,0 12.361,0.285 18.179,-0.365 v 0 c 11.166,-1.206 25.256,-4.31 34.105,-7.731 v 0 c 12.588,-4.893 71.64,-40.11 86.917,-48.63 v 0 c 45.985,-26.081 80.968,-50.041 113.788,-76.487 v 0 c 50.169,-40.415 93.482,-87.275 147.781,-182.374 v 0 c 2.145,-3.688 3.282,-6.516 3.282,-9.954 v 0 c 0.195,-5.321 -4.379,-7.224 -5.914,-7.662 v 0 c -9.338,-2.803 -47.676,-11.434 -59.045,-15.35 v 0 c -9.646,-3.414 -11.418,-5.542 -12.807,-10.012 v 0 c -0.505,-1.853 -2.136,-10.906 -4.038,-13.311 v 0 c -1.902,-2.47 -6.314,-2.99 -11.011,-2.99 v 0 c -2.893,0 -4.33,-0.162 -4.03,3.056 v 0 c 0.251,3.21 2.16,11.897 3.266,16.893 v 0 c 1.089,5.03 3.153,8.784 7.728,11.548 v 0 c 4.559,2.779 20.469,5.347 29.409,7.558 v 0 c 8.939,2.169 9.409,6.321 9.256,13.074 v 0 c 0,-7.16 -2.479,-8.881 -11.452,-10.905 v 0 c -9.107,-2.023 -24.417,-3.998 -29.471,-7.426 v 0 c -4.853,-3.341 -6.771,-7.99 -7.648,-11.663 v 0 c -3.072,-12.7 -5.143,-22.005 -4.786,-25.125 v 0 c 0.277,-2.771 1.398,-3.161 4.486,-2.812 v 0 c 3.08,0.358 10.784,1.447 22.354,1.878 v 0 c 3.422,0 3.185,4.144 3.13,8.728 v 0 c 0,1.665 0.08,6.622 0.95,9.043 v 0 c 0.837,2.429 2.682,4.648 5.614,5.542 v 0 c 6.428,1.982 42.037,11.612 60.15,16.999 v 0 c 7.939,2.358 11.23,4.876 10.514,12.1 v 0 c -0.617,6.331 -6.436,15.724 -16.747,31.879 v 0 c -10.376,16.26 -23.42,38.461 -40.768,63.041 v 0 c -30.814,43.622 -61.157,77.694 -98.861,107.515 v 0 c -27.832,22.014 -57.053,39.674 -78.473,52.232 v 0 c -21.437,12.547 -111.913,62.022 -125.93,66.425 v 0 c -12.767,3.998 -22.908,5.307 -31.952,6.23 v 0 c -6.151,0.621 -11.319,0.161 -16.805,0.161 v 0 c -5.184,0 -3.355,4.211 -2.641,5.873 v 0 c -0.529,-1.175 -3.64,-6.978 1.47,-6.978" /></g></g></g></g><g
       id="g452"><g
         clip-path="url(#clipPath458)"
         id="g454"><g
           id="g460"><g
             id="g462"><path
               id="path492"
               style="fill:url(#linearGradient490);stroke:none"
               d="m 522.347,496.719 c -3.469,-4.201 -21.216,-32.39 -35.592,-58.711 v 0 c -10.426,-19.063 -22.908,-46.099 -25.345,-52.65 v 0 c -2.21,-5.971 -2.617,-11.457 -2.388,-18.184 v 0 c 0.194,-6.671 1.316,-17.537 1.706,-25.338 v 0 c 0.382,-7.491 -1.528,-10.776 -9.312,-12.189 v 0 c -6.591,-1.187 -41.687,-7.07 -50.326,-9.166 v 0 c -8.653,-2.113 -11.359,-6.403 -13.033,-12.758 v 0 c -1.723,-6.323 -4.218,-18.332 -4.307,-21.063 v 0 c -0.074,-2.673 0.268,-3.2 2.786,-2.877 v 0 c 2.471,0.359 7.786,0.828 9.938,0.977 v 0 c 2.244,0.162 1.797,1.818 2.479,4.192 v 0 c 0.642,2.138 1.074,5.713 2.374,11.23 v 0 c 1.284,5.508 3.021,9.783 10.644,12.033 v 0 c 7.623,2.253 42.126,7.794 47.969,9.404 v 0 c 5.825,1.61 9.548,4.112 10.197,9.946 v 0 c 0.651,5.786 -0.535,18.17 -0.706,28.229 v 0 c -0.155,10.533 -0.284,15.245 5.647,26.621 v 0 c 11.45,21.892 47.026,73.651 71.022,103.649 v 0 c 0,0 -2.259,1.677 -5.095,3.751 v 0 c -3.551,2.582 -8.037,5.806 -10.506,6.577 v 0 c -0.774,0.243 -1.471,0.362 -2.121,0.362 v 0 c -2.219,0 -3.875,-1.395 -6.031,-4.035" /></g></g></g></g><g
       id="g494"><g
         clip-path="url(#clipPath500)"
         id="g496"><g
           id="g502"><g
             id="g504" /><g
             id="g544"><g
               id="g542"
               clip-path="url(#clipPath508)"><g
                 id="g540"><g
                   id="g538"
                   clip-path="url(#clipPath512)"><g
                     id="g536"><g
                       id="g534"><path
                         id="path532"
                         style="fill:url(#linearGradient530);stroke:none"
                         d="m 510.215,307.724 c -0.308,6.208 1.975,11.903 5.933,17.584 5.314,7.63 13.497,15.422 23.557,25.848 17.609,18.26 60.523,60.272 62.058,61.816 0.976,0.959 2.137,2.307 -0.243,4.607 -4.258,4.088 -6.501,6.708 -13.197,13.428 -4.088,4.092 -6.931,6.579 -6.785,7.997 0.016,0.202 -47.935,-53.719 -63.651,-93.592 -6.452,-14.222 -8.305,-22.323 -8.305,-29.4 0,-6.144 0.633,-8.288 0.633,-8.288" /></g></g></g></g></g></g></g><g
           id="g546"><g
             id="g548" /><g
             id="g590"><g
               id="g588"
               clip-path="url(#clipPath552)"><g
                 id="g586"><g
                   id="g584"
                   clip-path="url(#clipPath556)"><g
                     id="g582"><g
                       id="g580"><path
                         id="path578"
                         style="fill:url(#linearGradient576);stroke:none"
                         d="m 358.128,659.853 c 6.696,0.053 12.913,0.236 18.698,-0.483 11.385,-1.415 25.329,-4.429 34.13,-8.093 4.575,-1.915 15.415,-7.806 28.075,-14.956 21.924,-12.401 49.309,-28.544 59.036,-34.001 33.861,-19.262 61.848,-37.408 87.314,-56.305 9.199,-6.805 18.016,-13.83 26.694,-20.867 50.334,-40.65 91.662,-85.656 146.879,-182.11 2.129,-3.736 2.778,-6.704 2.543,-9.962 -0.195,-2.876 -2.673,-5.786 -6.72,-6.679 z" /></g></g></g></g></g></g></g></g></g><g
       id="g592"><g
         clip-path="url(#clipPath598)"
         id="g594"><g
           id="g600"><g
             id="g602"><path
               id="path620"
               style="fill:url(#linearGradient618);stroke:none"
               d="m 638.103,753.242 c 1.056,-0.634 2.04,-1.268 2.812,-2.076 v 0 c 2.68,-2.495 3.259,-4.966 3.341,-5.498 v 0 c 1.307,-6.504 4.915,-15.245 13.179,-24.683 v 0 c 7.135,-8.207 21.851,-20.379 24.931,-22.522 v 0 c 1.942,-1.319 3.869,-2.652 5.526,-4.488 v 0 c 0.943,4.94 2.487,10.372 4.688,15.687 v 0 c -0.365,-0.569 -0.7,-1.329 -1.373,-2.182 v 0 c -0.748,-1.011 -2.225,-2.316 -4.413,-2.426 v 0 h -0.072 -0.139 c -1.909,0.028 -3.268,0.829 -4.404,1.618 v 0 c -7.971,5.927 -30.238,23.259 -33.446,37.972 v 0 c -2.007,6.879 0.519,3.742 -6.64,7.366 v 0 c -1.991,0.777 -3.933,1.561 -5.908,2.296 v 0 c 0.691,-0.37 1.316,-0.719 1.918,-1.064" /></g></g></g></g><g
       id="g622"><g
         clip-path="url(#clipPath628)"
         id="g624"><g
           id="g630"><g
             id="g632"><path
               id="path650"
               style="fill:url(#linearGradient648);stroke:none"
               d="m 684.414,592.309 c -10.499,-2.881 -36.324,-8.145 -46.278,-11.257 v 0 c -7.427,-2.683 -8.37,-5.039 -8.605,-8.748 v 0 -0.045 c -0.017,-3.435 1.56,-8.785 4.891,-13.383 v 0 c 3.869,-5.511 22.558,-26.757 43.409,-52.955 v 0 c 2.397,-2.929 3.398,-4.05 5.371,-6.069 v 0 c -0.754,0.987 -30.18,38.232 -39.199,48.52 v 0 c -2.577,3.011 -5.518,7.067 -5.565,12.377 v 0 c -0.019,5.301 4.045,12.85 12.422,15.742 v 0 c 11.191,4.092 31.554,10.687 36.186,13.202 v 0 c 4.519,2.584 5.851,3.721 6.517,6.809 v 0 c -2.323,-1.892 -5.33,-3.125 -9.149,-4.193" /></g></g></g></g><g
       id="g652"><g
         clip-path="url(#clipPath658)"
         id="g654"><g
           id="g660"><g
             id="g662"><path
               id="path678"
               style="fill:url(#linearGradient676);stroke:none"
               d="m 730.138,736.218 c -19.892,-0.455 -33.282,-17.35 -37.183,-33.135 v 0 c 4.037,14.103 16.877,30.782 37.241,30.782 v 0 c 25.939,0 36.754,-9.792 40.37,-24.391 v 0 c -4.508,20.095 -21.687,26.763 -38.837,26.763 v 0 c -0.531,0 -1.06,-0.006 -1.591,-0.019" /></g></g></g></g><g
       id="g680"><g
         clip-path="url(#clipPath686)"
         id="g682"><g
           id="g688"><g
             id="g690"><path
               id="path708"
               style="fill:url(#linearGradient706);stroke:none"
               d="M 542.98,349.018 C 522.908,328.477 513.775,322.09 514.197,309.307 v 0 c 0.236,-7.541 0.822,-26.093 0.861,-28.855 v 0 c 0,-1.885 0.179,-3.672 -3.007,-5.337 v 0 c -1.56,-0.847 -4.249,-0.838 -5.622,-0.838 v 0 c -5.461,0 -58.411,5.151 -76.97,5.151 v 0 c -18.593,0 -34.519,-2.063 -44.092,-4.469 v 0 c -1.56,-0.365 -5.59,-0.113 -7.216,2.292 v 0 c -0.829,1.252 -1.129,2.519 -1.203,3.616 v 0 c -0.406,-3.616 -0.747,-7.841 -0.747,-9.686 v 0 c 3.347,0.657 11.221,1.747 21.388,2.511 v 0 c 13.009,1.023 27.734,0.844 37.541,0.844 v 0 c 9.834,0 82.675,-3.786 82.951,-3.786 v 0 c -0.479,5.607 -1.202,18.916 -1.405,27.255 v 0 c -0.057,2.138 -0.057,2.113 -0.244,8.061 v 0 c 0,6.517 1.243,14.123 7.647,20.917 v 0 c 3.445,3.729 16.861,18.64 31.081,34.437 v 0 c -4.655,-4.69 -8.882,-9.004 -12.18,-12.402" /></g></g></g></g><g
       id="g710"><g
         clip-path="url(#clipPath716)"
         id="g712"><g
           id="g718"><g
             id="g720"><path
               id="path738"
               style="fill:url(#linearGradient736);stroke:none"
               d="m 603.9,409.868 c 2.049,-0.3 3.845,-1.463 5.445,-2.926 v 0 c 3.762,-3.494 52.852,-39.012 62.636,-46.058 v 0 c 4.136,-2.95 7.997,-5.03 11.961,-6.404 v 0 c -3.34,2.341 -8.256,6.095 -14.708,11.027 v 0 c -9.385,7.258 -21.38,16.716 -33.43,26.272 v 0 c -10.182,8.094 -20.398,16.251 -29.084,23.266 v 0 c -0.153,-3.073 -2.065,-4.707 -2.82,-5.177" /></g></g></g></g><g
       id="g740"><g
         clip-path="url(#clipPath746)"
         id="g742"><g
           id="g748"><g
             id="g750"><path
               id="path768"
               style="fill:url(#linearGradient766);stroke:none"
               d="m 721.655,460.876 c -0.52,-1.269 -1.162,-3.003 -1.162,-5.466 v 0 c 0,-3.051 1.007,-7.277 4.908,-12.94 v 0 c 2.341,-3.316 4.624,-6.583 6.802,-9.744 v 0 c 34.12,-50.218 57.891,-98.795 66.884,-121.46 v 0 c 1.96,-5.494 1.578,-8.191 -0.209,-10.661 v 0 c 0,0 -17.757,-18.171 -19.902,-21.566 v 0 c -0.934,-1.358 -1.609,-2.52 -2.837,-3.56 v 0 c -1.193,-1.114 -4.322,-1.82 -7.313,-1.568 v 0 c -26.238,2.479 -54.728,3.502 -69.005,3.502 v 0 c -18.568,0 -29.416,-1.787 -35.585,-1.951 v 0 c -3.34,-0.113 -5.687,0.683 -6.095,1.235 v 0 c -0.024,0.083 -0.073,0.18 -0.162,0.245 v 0 c -0.268,-2.601 -0.429,-4.568 -0.487,-5.436 v 0 c 11.254,2.031 26.402,2.899 43.246,2.899 v 0 c 5.347,0 10.833,-0.098 16.481,-0.242 v 0 c 27.708,-0.855 59.88,-3.413 59.986,-3.413 v 0 c 0.058,0.04 15.439,19.624 24.962,27.514 v 0 c 1.675,1.35 2.341,1.252 2.341,2.543 v 0 c 0,0.919 -0.52,2.594 -1.316,4.86 v 0 c -9.914,28.385 -47.691,98.414 -77.076,137.363 v 0 c -2.779,3.721 -4.672,8.708 -4.672,12.164 v 0 c 0,4.495 2.356,7.786 4.754,9.646 v 0 c 2.065,1.67 7.013,5.945 13.561,12.426 v 0 c -10.141,-7.599 -17.243,-13.662 -18.104,-16.39" /></g></g></g></g><g
       id="g770"><g
         clip-path="url(#clipPath776)"
         id="g772"><g
           id="g778"><g
             id="g780"><path
               id="path794"
               style="fill:url(#linearGradient792);stroke:none"
               d="m 387.837,530.767 c -11.165,-0.808 -16.61,-2.169 -17.699,-2.43 v 0 c -1.096,-0.256 -1.738,-0.186 -1.795,-0.186 v 0 c 0.283,-0.435 0.69,-1.288 0.885,-1.618 v 0 c 0.292,0.106 0.739,0.285 1.56,0.52 v 0 c 6.721,1.914 21.714,2.825 40.435,2.872 v 0 c 17.854,0 37.332,-0.129 47.408,-0.593 v 0 c 9.044,-0.451 21.794,-1.662 31.985,-7.216 v 0 c 9.458,-5.289 29.984,-19.535 30.967,-18.652 v 0 c -8.328,5.85 -17.153,11.819 -25.133,16.706 v 0 c -10.531,6.598 -20.543,11.154 -23.533,11.077 v 0 c -32.033,0.487 -32.033,0.487 -50.885,0.487 v 0 c -14.709,0 -28.653,-0.553 -34.195,-0.967" /></g></g></g></g><g
       id="g796"><g
         clip-path="url(#clipPath802)"
         id="g798"><g
           id="g804"><g
             id="g806"><path
               id="path820"
               style="fill:url(#linearGradient818);stroke:none"
               d="m 373.584,622.221 c 0.488,-0.037 1.211,-0.016 2.107,0.004 v 0 c 3.074,0.069 8.18,0.139 12.805,-2.084 v 0 c 8.149,-4.022 28.871,-19.341 32.04,-22.655 v 0 c 3.933,-4.519 7.867,-4.072 4.388,-1.049 v 0 c -12.148,11.284 -30.537,24.289 -39.16,26.073 v 0 c -3.046,0.719 -7.328,1.036 -10.807,1.199 v 0 c -2.657,0.153 -2.479,3.246 -3.226,3.834 v 0 c 0.065,-0.548 0.235,-5.207 1.853,-5.322" /></g></g></g></g><g
       id="g822"><g
         clip-path="url(#clipPath828)"
         id="g824"><g
           id="g830"><g
             id="g832"><path
               id="path846"
               style="fill:url(#linearGradient844);stroke:none"
               d="m 354.52,537.182 c -5.729,-0.137 -20.225,-7.341 -22.443,-8.788 v 0 c -3.382,-1.885 -4.828,-1.917 -6.941,0.375 v 0 c 0.959,-2.329 2.6,-3.755 4.088,-3.252 v 0 c 1.47,0.516 18.877,9.569 26.572,9.569 v 0 c 2.527,0 3.259,-0.06 5.234,-0.873 v 0 c -1.192,2.028 -2.503,2.973 -6.098,2.973 v 0 c -0.134,0 -0.271,-0.001 -0.412,-0.004" /></g></g></g></g><g
       id="g848"><g
         clip-path="url(#clipPath854)"
         id="g850"><g
           id="g856"><g
             id="g858"><path
               id="path870"
               style="fill:url(#linearGradient868);stroke:none"
               d="m 524.412,755.707 c -3.958,-0.625 -16.57,-4.037 -17.902,-4.484 v 0 c -1.373,-0.431 -2.089,-0.882 -2.974,-2.329 v 0 c -0.894,-1.433 -1.3,-4.575 -0.902,-5.785 v 0 c 0.358,-1.252 1.617,-2.19 3.567,-1.358 v 0 c 2.691,1.097 18.323,6.846 21.071,7.72 v 0 c 1.178,0.395 1.674,0.999 1.926,1.629 v 0 c 0.398,1.017 0.504,2.357 0.398,3.434 v 0 c -0.151,1.223 -0.929,1.577 -2.053,1.577 v 0 c -0.877,0 -1.966,-0.216 -3.131,-0.404" /></g></g></g></g><g
       id="g872"><g
         clip-path="url(#clipPath878)"
         id="g874"><g
           transform="translate(523.9565,754.3633)"
           id="g880"><path
             id="path882"
             style="fill:#000000;fill-opacity:1;fill-rule:nonzero;stroke:none"
             d="m 0,0 c 1.747,0.333 2.601,0.158 2.698,-0.804 0.073,-1 0,-1.614 -0.081,-1.984 -0.073,-0.54 -0.292,-0.828 -1.17,-1.149 -1.788,-0.638 -13.214,-4.709 -15.968,-5.855 -2.519,-1.06 -3.787,-0.476 -4.031,0.589 -0.211,1.085 0.178,2.783 0.618,3.539 0.439,0.756 1.113,1.272 2.048,1.573 C -13.822,-3.356 -3.242,-0.585 0,0" /></g></g></g><g
       id="g884"><g
         clip-path="url(#clipPath890)"
         id="g886"><g
           id="g892"><g
             id="g894"><path
               id="path908"
               style="fill:url(#linearGradient906);stroke:none"
               d="M 541.005,737.843 C 508.63,736.989 480.393,723.272 464.548,716.8 v 0 c 11.302,3.864 38.744,15.115 69.363,16.956 v 0 c 16.821,1.019 23.566,-0.412 29.725,-7.33 v 0 c 8.939,-9.853 29.782,-37.847 37.201,-52.039 v 0 c 2.934,-5.632 4.242,-10.659 3.818,-14.98 v 0 c -0.584,-6.513 -2.908,-11.304 -4.753,-15.607 v 0 c -3.225,-7.406 -15.139,-31.618 -17.211,-35.141 v 0 c -8.686,-15.033 -16.992,-14.505 -25.848,-12.457 v 0 c 0.471,-0.255 4.518,-2.17 8.231,-3.681 v 0 c 10.313,-4.223 16.845,1.642 22.72,12.698 v 0 c 1.911,3.461 14.563,30.207 17.586,37.915 v 0 c 1.958,4.84 4.167,9.638 4.167,15.792 v 0 c 0,4.028 -1.104,10.224 -3.86,15.949 v 0 c -6.962,14.682 -28.992,42.575 -37.801,53.115 v 0 c -6.845,8.074 -13.082,9.893 -23.901,9.893 v 0 c -0.956,0 -1.948,-0.014 -2.98,-0.04" /></g></g></g></g><g
       id="g910"><g
         clip-path="url(#clipPath916)"
         id="g912"><g
           id="g918"><g
             id="g920"><path
               id="path942"
               style="fill:url(#linearGradient940);stroke:none"
               d="M 502.813,433.993 C 491.33,415.702 474.754,388.4 472.161,382.401 v 0 c -2.397,-5.541 -3.177,-10.531 -3.258,-17.048 v 0 c 0,-0.065 0.943,-29.513 0.943,-29.693 v 0 c 0,-3.64 -0.537,-6.637 -2.488,-8.946 v 0 c -1.99,-2.268 -4.972,-3.405 -9.133,-3.99 v 0 c -6.817,-1.008 -39.005,-5.965 -47.829,-7.761 v 0 c -8.582,-1.853 -12.142,-5.786 -14.05,-11.482 v 0 c -1.39,-4.096 -2.983,-11.067 -2.967,-14.123 v 0 c 0,0 -0.097,-1.675 0,-1.675 v 0 c -0.244,-3.266 0.943,-3.072 0.943,-3.072 v 0 c 0,0 37.242,2.853 59.417,1.529 v 0 c 22.176,-1.3 52.771,-4.193 52.771,-4.193 v 0 c 0,0 -32.196,6.029 -54.112,7.403 v 0 c -10.916,0.643 -23.602,0.377 -33.617,0.111 v 0 c -10.086,-0.268 -17.463,-0.537 -17.601,0.125 v 0 c -0.163,0.935 -0.732,2.298 -0.504,4.997 v 0 c 0.366,1.731 0.813,3.729 1.415,5.81 v 0 c 1.429,5.444 3.965,10.247 12.473,12.221 v 0 c 8.126,2.065 39.386,7.232 45.327,8.688 v 0 c 5.859,1.479 9.653,3.665 10.474,8.442 v 0 c 0.212,1.462 0.406,4.763 0.391,7.802 v 0 c 0,6.281 -1.105,22.957 -1.073,24.005 v 0 c 0.211,10.254 0.65,15.699 7.354,26.767 v 0 c 10.393,17.291 49.512,76.757 68.981,97.403 v 0 c 1.22,1.3 1.789,2.412 3.959,2.067 v 0 c -0.432,0.086 -0.854,0.215 -1.261,0.431 v 0 c -0.357,0.17 -1.885,1.317 -3.949,2.836 v 0 c -4.875,-5.474 -26.71,-32.764 -41.954,-57.062" /></g></g></g></g><g
       id="g944"><g
         clip-path="url(#clipPath950)"
         id="g946"><g
           transform="translate(104.7578,96.6729)"
           id="g952"><path
             id="path954"
             style="fill:#182753;fill-opacity:1;fill-rule:nonzero;stroke:none"
             d="m 0,0 v 41.044 h 18.82 c 19.43,0 45.059,-3.289 45.059,-19.396 C 63.879,10.727 55.566,0 15.7,0 Z M -23.914,50.739 V -36.088 H 0 v 26.71 h 21.42 c 45.929,0 69.316,14.742 69.316,31.026 0,17.504 -25.126,29.091 -67.251,29.091 z" /></g><g
           transform="translate(331.8242,60.585)"
           id="g956"><path
             id="path958"
             style="fill:#182753;fill-opacity:1;fill-rule:nonzero;stroke:none"
             d="m 0,0 v 10.946 h -58.938 c -12.637,0 -16.301,5.721 -16.301,15.423 V 39.078 H -6.07 v 10.898 h -69.169 v 25.947 h 72.29 V 86.827 H -99.138 V 25.851 C -99.138,9.533 -92.385,0 -70.372,0 Z" /></g><g
           transform="translate(484.814,147.4121)"
           id="g960"><path
             id="path962"
             style="fill:#182753;fill-opacity:1;fill-rule:nonzero;stroke:none"
             d="m 0,0 h -23.908 v -73.28 c -6.581,-2.276 -15.406,-4.355 -28.245,-4.355 -18.365,0 -36.584,4.68 -36.584,20.809 V 0 h -23.891 v -58.564 c 0,-23.923 23.891,-31.009 50.235,-31.009 25.143,0 45.587,5.209 62.393,12.279 z" /></g><g
           transform="translate(551.293,103.7588)"
           id="g964"><path
             id="path966"
             style="fill:#182753;fill-opacity:1;fill-rule:nonzero;stroke:none"
             d="m 0,0 c 0,24.069 20.469,35.373 45.4,35.373 20.437,0 36.225,-5.899 51.145,-10.945 v 14.56 C 80.757,43.653 65.837,46.271 45.4,46.271 5.396,46.271 -27.198,27.905 -27.198,0 c 0,-29.48 32.594,-45.92 72.598,-45.92 19.958,0 40.898,4.136 53.762,7.42 V -4.096 H 75.58 v -25.735 c -8.671,-2.933 -14.911,-5.2 -28.426,-5.2 C 19.933,-35.031 0,-21.519 0,0" /></g><g
           transform="translate(793.1396,60.585)"
           id="g968"><path
             id="path970"
             style="fill:#182753;fill-opacity:1;fill-rule:nonzero;stroke:none"
             d="m 0,0 v 10.946 h -58.937 c -12.629,0 -16.286,5.721 -16.286,15.423 v 12.709 h 69.16 v 10.898 h -69.16 V 75.923 H -2.948 V 86.827 H -99.129 V 25.851 C -99.129,9.533 -92.393,0 -70.37,0 Z" /></g><g
           transform="translate(896.8848,67.5332)"
           id="g972"><path
             id="path974"
             style="fill:#182753;fill-opacity:1;fill-rule:nonzero;stroke:none"
             d="m 0,0 c -27.214,0 -45.571,14.025 -45.571,35.779 0,23.851 20.454,35.82 45.571,35.82 24.972,0 45.417,-11.969 45.417,-35.82 C 45.417,14.025 27.028,0 0,0 m 0,82.496 c -40.027,0 -72.752,-18.707 -72.752,-46.717 0,-29.384 32.725,-45.473 72.752,-45.473 40.037,0 72.623,16.089 72.623,45.473 0,28.01 -32.586,46.717 -72.623,46.717" /></g><g
           transform="translate(989.1318,134.9463)"
           id="g976"><path
             id="path978"
             style="fill:#182753;fill-opacity:1;fill-rule:nonzero;stroke:none"
             d="M 0,0 H 47.651 V -74.361 H 71.567 V 0 h 47.667 V 12.466 H 0 Z" /></g></g></g></g></svg>